<?xml version="1.0" encoding="UTF-8"?>
<!DOCTYPE svg PUBLIC "-//W3C//DTD SVG 1.1//EN" "http://www.w3.org/Graphics/SVG/1.1/DTD/svg11.dtd">
<!-- Creator: CorelDRAW -->
<svg xmlns="http://www.w3.org/2000/svg" xml:space="preserve" width="67.0694cm" height="37.7266cm" version="1.1" style="shape-rendering:geometricPrecision; text-rendering:geometricPrecision; image-rendering:optimizeQuality; fill-rule:evenodd; clip-rule:evenodd"
viewBox="0 0 19684.39 11072.47"
 xmlns:xlink="http://www.w3.org/1999/xlink"
 xmlns:xodm="http://www.corel.com/coreldraw/odm/2003">
 <defs>
  <style type="text/css">
   <![CDATA[
    .fil1 {fill:url(#id0)}
    .fil0 {fill:url(#id1)}
   ]]>
  </style>
  <linearGradient id="id0" gradientUnits="objectBoundingBox" x1="50%" y1="100%" x2="50%" y2="0%">
   <stop offset="0" style="stop-opacity:1; stop-color:white"/>
   <stop offset="1" style="stop-opacity:1; stop-color:#C9C9C9"/>
  </linearGradient>
  <linearGradient id="id1" gradientUnits="objectBoundingBox" xlink:href="#id0" x1="50%" y1="100%" x2="50%" y2="0%">
  </linearGradient>
 </defs>
 <g id="Layer_x0020_1">
  <metadata id="CorelCorpID_0Corel-Layer"/>
  <polygon class="fil0" points="-0,9391.77 -0,11072.47 19684.39,11072.47 19684.39,9391.77 "/>
  <path class="fil1" d="M19684.39 8538l0 1667.53 -40.91 -20.76 0 -174.55 -64.91 0 0 85.04 -65.68 0 0 33.36 -19.48 0 0 15.41 -18.77 0 0 43.74 -64.44 -32.73 -64.44 32.73 -108.41 0 0 -347.12 -88.18 -88.51 -88.18 89.06 0 377.52 -113.53 0 0 -21.63 -124.29 0 -23.49 21.47 -16.92 0.16 -6.58 0 0 -136.88 0 -37.83 -19.73 0 0 -20.62 -19.8 0 -14.96 -83.19 -15.12 83.19 -19.8 0 0 20.62 -19.73 0 0 37.83 0 136.88 -89.36 0 0 -261.94 -348.33 0 0 111.96 -101.96 0 0 86.3 -247.03 63.68 0 -135.52 -30.75 -118.3 -11.32 0 -11.17 -80.64 -8.39 0 -6.61 -120.11 -10.44 119.81 -6.81 0 -12.76 80.53 -10.23 0 -29.14 117.11 0 30.32 -94.04 0 0 -111.13 -75.96 0 0 217.92 -193.34 0 0 -52.16 -6.44 0 -108.22 0 -54.08 52.16 -53.24 0 0 -300.9 -170.28 0 0 148.77 -125.47 0 0 -148.05 -170.28 0 0 300.18 -84.99 0 0 -127.46 -108.92 0 0 127.46 -30.49 0 0 -59.91 -81.72 0 0 59.91 -51.17 0 0 -182.58 -72.22 0 0 182.58 -26.25 0 0 -49.28 -19.6 0 0 -251.1 -34.98 0 0 -62.43 -32.03 0 0 -41.18 -26.57 0 -8.91 -111.19 -7.04 110.62 -22.95 0 0 40.85 -34.47 0 0 63.53 -35.29 0 0 36.65c-75.79,-12.67 -143.99,8.76 -143.99,50.52l0 213 -56.88 0 0 -43.91 -46.67 0 0 -42.56 -98.77 0 0 -47.76 -113.2 0 0 87.33c-30.98,-5.06 -59.63,2.87 -60.93,17.54l-8.83 0 0 -183.43 -131.92 0 0 154.42 -98.97 0 0 58.36 -77.85 0 0 -370.71c0,-27.59 -22.36,-49.95 -49.95,-49.95 -27.59,0 -49.95,22.36 -49.95,49.95l0 249.62 -130.72 0 0 42.01 -50.78 0 0 35.55 -43.89 0 0 43.52c-74.89,0 -79.7,0 -154.59,0l0 -366.19 -154.2 0 0 75.62 -47.43 0 0 38.37 -67.28 0 0 57.96 -44.41 0 -122.58 0 0 194.24 -68.57 0 0 -62.22 -104.43 -49.8 -94.06 51.58 0 60.45 -114.91 0 0 -217.37 -249.32 0 0 49.45 -60.57 0 0 49.71 -78.73 0 0 118.21 -90.1 0 0 -366.19 -138.1 0 0 252.75 -54.43 0 0 79.73 -66.21 0 0 -332.48 -166.08 0 0 325.96 -60.3 0 0 -304.23 -31.12 -60.34 5.16 0 -20.92 -96.33 -20.93 96.33 5.16 0 -31.12 60.34 0 344.45 -242.08 0 -68.97 -249.41 -155.68 0.68 -61.13 248.73 -9.4 0 0 -389.52 -18.47 49.58 -62.2 -0.25 -18.46 -49.33 0 286.66 -115.43 0 0 -96.3 -10.62 21.06 -40.12 0 -10.61 -21.06 0 121.13 -117.96 0 0 78.04 -200.93 0 0 -169.37 -418.01 0 0 100.73 -78 0 0 68.65 -57.77 0 0 -366.19 -85.25 -44.71 0 227.18 -61.43 0 0 183.71 -111.52 0 0 -305.5 -494.41 0 0 134.38 -145.59 0 0 117.71 -101.97 0 -71.96 -30.56 -75.25 33.45 -66.89 0 0 50.52 -78.08 0 0 -13.18 -40.91 -20.76 0 -174.55 -64.91 0 0 85.04 -65.68 0 0 33.36 -19.48 0 0 15.41 -18.77 0 0 43.74 -64.44 -32.73 -64.44 32.73 -108.41 0 0 -347.12 -88.18 -88.51 -88.18 89.06 0 377.52 -113.53 0 0 -21.63 -124.29 0 -23.49 21.47 -16.92 0.16 -6.58 0 0 -136.88 0 -37.83 -19.73 0 0 -20.62 -19.8 0 -14.96 -83.19 -15.12 83.19 -19.8 0 0 20.62 -19.73 0 0 37.83 0 136.88 -89.36 0 0 -261.94 -348.33 0 0 111.96 -101.96 0 0 86.3 -247.03 63.68 0 -135.52 -30.75 -118.3 -11.32 0 -11.17 -80.64 -8.39 0 -6.61 -120.11 -10.44 119.81 -6.81 0 -12.76 80.53 -10.23 0 -29.14 117.11 0 30.32 -94.04 0 0 -111.13 -75.96 0 0 217.92 -193.34 0 0 -52.16 -6.44 0 -108.22 0 -54.08 52.16 -53.24 0 0 -300.9 -170.28 0 0 148.77 -125.47 0 0 -148.05 -170.28 0 0 300.18 -84.99 0 0 -127.46 -108.92 0 0 127.46 -30.49 0 0 -59.91 -81.72 0 0 59.91 -51.17 0 0 -182.58 -72.22 0 0 182.58 -26.25 0 0 -49.28 -19.6 0 0 -251.1 -34.98 0 0 -62.43 -32.03 0 0 -41.18 -26.57 0 -8.91 -111.19 -7.04 110.62 -22.95 0 0 40.85 -34.47 0 0 63.53 -35.29 0 0 36.65c-75.79,-12.67 -143.99,8.76 -143.99,50.52l0 213 -56.88 0 0 -43.91 -46.67 0 0 -42.56 -98.77 0 0 -47.76 -113.2 0 0 87.33c-30.98,-5.06 -59.63,2.87 -60.93,17.54l-8.83 0 0 -183.43 -131.92 0 0 154.42 -98.97 0 0 58.36 -77.85 0 0 -370.71c0,-27.59 -22.36,-49.95 -49.95,-49.95 -27.59,0 -49.95,22.36 -49.95,49.95l0 249.62 -130.72 0 0 42.01 -50.78 0 0 35.55 -43.89 0 0 43.52c-74.89,0 -79.7,0 -154.59,0l0 -366.19 -154.2 0 0 75.62 -47.43 0 0 38.37 -67.28 0 0 57.96 -44.41 0 -122.58 0 0 194.24 -68.57 0 0 -62.22 -104.43 -49.8 -94.06 51.58 0 60.45 -114.91 0 0 -217.37 -249.32 0 0 49.45 -60.57 0 0 49.71 -78.73 0 0 118.21 -90.1 0 0 -366.19 -138.1 0 0 252.75 -54.43 0 0 79.73 -66.21 0 0 -332.48 -166.08 0 0 325.96 -60.3 0 0 -304.23 -31.12 -60.34 5.16 0 -20.92 -96.33 -20.93 96.33 5.16 0 -31.12 60.34 0 344.45 -242.08 0 -68.97 -249.41 -155.68 0.68 -61.13 248.73 -9.4 0 0 -389.52 -18.47 49.58 -62.2 -0.25 -18.46 -49.33 0 286.66 -115.43 0 0 -96.3 -10.62 21.06 -40.12 0 -10.61 -21.06 0 121.13 -117.96 0 0 78.04 -200.93 0 0 -169.37 -418.01 0 0 100.73 -78 0 0 68.65 -57.77 0 0 -366.19 -85.25 -44.71 0 227.18 -61.43 0 0 183.71 -111.52 0 0 -305.5 -494.41 0 0 134.38 -145.59 0 0 117.71 -101.97 0 -71.96 -30.56 -75.25 33.45 -66.89 0 0 50.52 -78.08 0 0 -1680.7 19684.39 0z"/>
  <path class="fil0" d="M-0 7684.2l0 1667.53 40.91 -20.76 0 -174.55 64.91 0 0 85.04 65.68 0 0 33.36 19.48 0 0 15.41 18.77 0 0 43.74 64.44 -32.73 64.44 32.73 108.41 0 0 -347.12 88.18 -88.51 88.18 89.06 0 377.52 113.53 0 0 -21.63 124.29 0 23.49 21.47 16.92 0.16 6.58 0 0 -136.88 0 -37.83 19.73 0 0 -20.62 19.8 0 14.96 -83.19 15.12 83.19 19.8 0 0 20.62 19.73 0 0 37.83 0 136.88 89.36 0 0 -261.94 348.33 0 0 111.96 101.96 0 0 86.3 247.03 63.68 0 -135.52 30.75 -118.3 11.32 0 11.17 -80.64 8.39 0 6.61 -120.11 10.44 119.81 6.81 0 12.76 80.53 10.23 0 29.14 117.11 0 30.32 94.04 0 0 -111.13 75.96 0 0 217.92 193.34 0 0 -52.16 6.44 0 108.22 0 54.08 52.16 53.24 0 0 -300.9 170.28 0 0 148.77 125.47 0 0 -148.05 170.28 0 0 300.18 84.99 0 0 -127.46 108.92 0 0 127.46 30.49 0 0 -59.91 81.72 0 0 59.91 51.17 0 0 -182.58 72.22 0 0 182.58 26.25 0 0 -49.28 19.6 0 0 -251.1 34.98 0 0 -62.43 32.03 0 0 -41.18 26.57 0 8.91 -111.19 7.04 110.62 22.95 0 0 40.85 34.47 0 0 63.53 35.29 0 0 36.65c75.79,-12.67 143.99,8.76 143.99,50.52l0 213 56.88 0 0 -43.91 46.67 0 0 -42.56 98.77 0 0 -47.76 113.2 0 0 87.33c30.98,-5.06 59.63,2.87 60.93,17.54l8.83 0 0 -183.43 131.92 0 0 154.42 98.97 0 0 58.36 77.85 0 0 -370.71c0,-27.59 22.36,-49.95 49.95,-49.95 27.59,0 49.95,22.36 49.95,49.95l0 249.62 130.72 0 0 42.01 50.78 0 0 35.55 43.89 0 0 43.52c74.89,0 79.7,0 154.59,0l0 -366.19 154.2 0 0 75.62 47.43 0 0 38.37 67.28 0 0 57.96 44.41 0 122.58 0 0 194.24 68.57 0 0 -62.22 104.43 -49.8 94.06 51.58 0 60.45 114.91 0 0 -217.37 249.32 0 0 49.45 60.57 0 0 49.71 78.73 0 0 118.21 90.1 0 0 -366.19 138.1 0 0 252.75 54.43 0 0 79.73 66.21 0 0 -332.48 166.08 0 0 325.96 60.3 0 0 -304.23 31.12 -60.34 -5.16 0 20.92 -96.33 20.93 96.33 -5.16 0 31.12 60.34 0 344.45 242.08 0 68.97 -249.41 155.68 0.68 61.13 248.73 9.4 0 0 -389.52 18.47 49.58 62.2 -0.25 18.46 -49.33 0 286.66 115.43 0 0 -96.3 10.62 21.06 40.12 0 10.61 -21.06 0 121.13 117.96 0 0 78.04 200.93 0 0 -169.37 418.01 0 0 100.73 78 0 0 68.65 57.77 0 0 -366.19 85.25 -44.71 0 227.18 61.43 0 0 183.71 111.52 0 0 -305.5 494.41 0 0 134.38 145.59 0 0 117.71 101.97 0 71.96 -30.56 75.25 33.45 66.89 0 0 50.52 78.08 0 0 -13.18 40.91 -20.76 0 -174.55 64.91 0 0 85.04 65.68 0 0 33.36 19.48 0 0 15.41 18.77 0 0 43.74 64.44 -32.73 64.44 32.73 108.41 0 0 -347.12 88.18 -88.51 88.18 89.06 0 377.52 113.53 0 0 -21.63 124.29 0 23.49 21.47 16.92 0.16 6.58 0 0 -136.88 0 -37.83 19.73 0 0 -20.62 19.8 0 14.96 -83.19 15.12 83.19 19.8 0 0 20.62 19.73 0 0 37.83 0 136.88 89.36 0 0 -261.94 348.33 0 0 111.96 101.96 0 0 86.3 247.03 63.68 0 -135.52 30.75 -118.3 11.32 0 11.17 -80.64 8.39 0 6.61 -120.11 10.44 119.81 6.81 0 12.76 80.53 10.23 0 29.14 117.11 0 30.32 94.04 0 0 -111.13 75.96 0 0 217.92 193.34 0 0 -52.16 6.44 0 108.22 0 54.08 52.16 53.24 0 0 -300.9 170.28 0 0 148.77 125.47 0 0 -148.05 170.28 0 0 300.18 84.99 0 0 -127.46 108.92 0 0 127.46 30.49 0 0 -59.91 81.72 0 0 59.91 51.17 0 0 -182.58 72.22 0 0 182.58 26.25 0 0 -49.28 19.6 0 0 -251.1 34.98 0 0 -62.43 32.03 0 0 -41.18 26.57 0 8.91 -111.19 7.04 110.62 22.95 0 0 40.85 34.47 0 0 63.53 35.29 0 0 36.65c75.79,-12.67 143.99,8.76 143.99,50.52l0 213 56.88 0 0 -43.91 46.67 0 0 -42.56 98.77 0 0 -47.76 113.2 0 0 87.33c30.98,-5.06 59.63,2.87 60.93,17.54l8.83 0 0 -183.43 131.92 0 0 154.42 98.97 0 0 58.36 77.85 0 0 -370.71c0,-27.59 22.36,-49.95 49.95,-49.95 27.59,0 49.95,22.36 49.95,49.95l0 249.62 130.72 0 0 42.01 50.78 0 0 35.55 43.89 0 0 43.52c74.89,0 79.7,0 154.59,0l0 -366.19 154.2 0 0 75.62 47.43 0 0 38.37 67.28 0 0 57.96 44.41 0 122.58 0 0 194.24 68.57 0 0 -62.22 104.43 -49.8 94.06 51.58 0 60.45 114.91 0 0 -217.37 249.32 0 0 49.45 60.57 0 0 49.71 78.73 0 0 118.21 90.1 0 0 -366.19 138.1 0 0 252.75 54.43 0 0 79.73 66.21 0 0 -332.48 166.08 0 0 325.96 60.3 0 0 -304.23 31.12 -60.34 -5.16 0 20.92 -96.33 20.93 96.33 -5.16 0 31.12 60.34 0 344.45 242.08 0 68.97 -249.41 155.68 0.68 61.13 248.73 9.4 0 0 -389.52 18.47 49.58 62.2 -0.25 18.46 -49.33 0 286.66 115.43 0 0 -96.3 10.62 21.06 40.12 0 10.61 -21.06 0 121.13 117.96 0 0 78.04 200.93 0 0 -169.37 418.01 0 0 100.73 78 0 0 68.65 57.77 0 0 -366.19 85.25 -44.71 0 227.18 61.43 0 0 183.71 111.52 0 0 -305.5 494.41 0 0 134.38 145.59 0 0 117.71 101.97 0 71.96 -30.56 75.25 33.45 66.89 0 0 50.52 78.08 0 0 -1680.7 -19684.39 0z"/>
  <path class="fil1" d="M19684.39 6830.4l0 1667.53 -40.91 -20.76 0 -174.55 -64.91 0 0 85.04 -65.68 0 0 33.36 -19.48 0 0 15.41 -18.77 0 0 43.74 -64.44 -32.73 -64.44 32.73 -108.41 0 0 -347.12 -88.18 -88.51 -88.18 89.06 0 377.52 -113.53 0 0 -21.63 -124.29 0 -23.49 21.47 -16.92 0.16 -6.58 0 0 -136.88 0 -37.83 -19.73 0 0 -20.62 -19.8 0 -14.96 -83.19 -15.12 83.19 -19.8 0 0 20.62 -19.73 0 0 37.83 0 136.88 -89.36 0 0 -261.94 -348.33 0 0 111.96 -101.96 0 0 86.3 -247.03 63.68 0 -135.52 -30.75 -118.3 -11.32 0 -11.17 -80.64 -8.39 0 -6.61 -120.11 -10.44 119.81 -6.81 0 -12.76 80.53 -10.23 0 -29.14 117.11 0 30.32 -94.04 0 0 -111.13 -75.96 0 0 217.92 -193.34 0 0 -52.16 -6.44 0 -108.22 0 -54.08 52.16 -53.24 0 0 -300.9 -170.28 0 0 148.77 -125.47 0 0 -148.05 -170.28 0 0 300.18 -84.99 0 0 -127.46 -108.92 0 0 127.46 -30.49 0 0 -59.91 -81.72 0 0 59.91 -51.17 0 0 -182.58 -72.22 0 0 182.58 -26.25 0 0 -49.28 -19.6 0 0 -251.1 -34.98 0 0 -62.43 -32.03 0 0 -41.18 -26.57 0 -8.91 -111.19 -7.04 110.62 -22.95 0 0 40.85 -34.47 0 0 63.53 -35.29 0 0 36.65c-75.79,-12.67 -143.99,8.76 -143.99,50.52l0 213 -56.88 0 0 -43.91 -46.67 0 0 -42.56 -98.77 0 0 -47.76 -113.2 0 0 87.33c-30.98,-5.06 -59.63,2.87 -60.93,17.54l-8.83 0 0 -183.43 -131.92 0 0 154.42 -98.97 0 0 58.36 -77.85 0 0 -370.71c0,-27.59 -22.36,-49.95 -49.95,-49.95 -27.59,0 -49.95,22.36 -49.95,49.95l0 249.62 -130.72 0 0 42.01 -50.78 0 0 35.55 -43.89 0 0 43.52c-74.89,0 -79.7,0 -154.59,0l0 -366.19 -154.2 0 0 75.62 -47.43 0 0 38.37 -67.28 0 0 57.96 -44.41 0 -122.58 0 0 194.24 -68.57 0 0 -62.22 -104.43 -49.8 -94.06 51.58 0 60.45 -114.91 0 0 -217.37 -249.32 0 0 49.45 -60.57 0 0 49.71 -78.73 0 0 118.21 -90.1 0 0 -366.19 -138.1 0 0 252.75 -54.43 0 0 79.73 -66.21 0 0 -332.48 -166.08 0 0 325.96 -60.3 0 0 -304.23 -31.12 -60.34 5.16 0 -20.92 -96.33 -20.93 96.33 5.16 0 -31.12 60.34 0 344.45 -242.08 0 -68.97 -249.41 -155.68 0.68 -61.13 248.73 -9.4 0 0 -389.52 -18.47 49.58 -62.2 -0.25 -18.46 -49.33 0 286.66 -115.43 0 0 -96.3 -10.62 21.06 -40.12 0 -10.61 -21.06 0 121.13 -117.96 0 0 78.04 -200.93 0 0 -169.37 -418.01 0 0 100.73 -78 0 0 68.65 -57.77 0 0 -366.19 -85.25 -44.71 0 227.18 -61.43 0 0 183.71 -111.52 0 0 -305.5 -494.41 0 0 134.38 -145.59 0 0 117.71 -101.97 0 -71.96 -30.56 -75.25 33.45 -66.89 0 0 50.52 -78.08 0 0 -13.18 -40.91 -20.76 0 -174.55 -64.91 0 0 85.04 -65.68 0 0 33.36 -19.48 0 0 15.41 -18.77 0 0 43.74 -64.44 -32.73 -64.44 32.73 -108.41 0 0 -347.12 -88.18 -88.51 -88.18 89.06 0 377.52 -113.53 0 0 -21.63 -124.29 0 -23.49 21.47 -16.92 0.16 -6.58 0 0 -136.88 0 -37.83 -19.73 0 0 -20.62 -19.8 0 -14.96 -83.19 -15.12 83.19 -19.8 0 0 20.62 -19.73 0 0 37.83 0 136.88 -89.36 0 0 -261.94 -348.33 0 0 111.96 -101.96 0 0 86.3 -247.03 63.68 0 -135.52 -30.75 -118.3 -11.32 0 -11.17 -80.64 -8.39 0 -6.61 -120.11 -10.44 119.81 -6.81 0 -12.76 80.53 -10.23 0 -29.14 117.11 0 30.32 -94.04 0 0 -111.13 -75.96 0 0 217.92 -193.34 0 0 -52.16 -6.44 0 -108.22 0 -54.08 52.16 -53.24 0 0 -300.9 -170.28 0 0 148.77 -125.47 0 0 -148.05 -170.28 0 0 300.18 -84.99 0 0 -127.46 -108.92 0 0 127.46 -30.49 0 0 -59.91 -81.72 0 0 59.91 -51.17 0 0 -182.58 -72.22 0 0 182.58 -26.25 0 0 -49.28 -19.6 0 0 -251.1 -34.98 0 0 -62.43 -32.03 0 0 -41.18 -26.57 0 -8.91 -111.19 -7.04 110.62 -22.95 0 0 40.85 -34.47 0 0 63.53 -35.29 0 0 36.65c-75.79,-12.67 -143.99,8.76 -143.99,50.52l0 213 -56.88 0 0 -43.91 -46.67 0 0 -42.56 -98.77 0 0 -47.76 -113.2 0 0 87.33c-30.98,-5.06 -59.63,2.87 -60.93,17.54l-8.83 0 0 -183.43 -131.92 0 0 154.42 -98.97 0 0 58.36 -77.85 0 0 -370.71c0,-27.59 -22.36,-49.95 -49.95,-49.95 -27.59,0 -49.95,22.36 -49.95,49.95l0 249.62 -130.72 0 0 42.01 -50.78 0 0 35.55 -43.89 0 0 43.52c-74.89,0 -79.7,0 -154.59,0l0 -366.19 -154.2 0 0 75.62 -47.43 0 0 38.37 -67.28 0 0 57.96 -44.41 0 -122.58 0 0 194.24 -68.57 0 0 -62.22 -104.43 -49.8 -94.06 51.58 0 60.45 -114.91 0 0 -217.37 -249.32 0 0 49.45 -60.57 0 0 49.71 -78.73 0 0 118.21 -90.1 0 0 -366.19 -138.1 0 0 252.75 -54.43 0 0 79.73 -66.21 0 0 -332.48 -166.08 0 0 325.96 -60.3 0 0 -304.23 -31.12 -60.34 5.16 0 -20.92 -96.33 -20.93 96.33 5.16 0 -31.12 60.34 0 344.45 -242.08 0 -68.97 -249.41 -155.68 0.68 -61.13 248.73 -9.4 0 0 -389.52 -18.47 49.58 -62.2 -0.25 -18.46 -49.33 0 286.66 -115.43 0 0 -96.3 -10.62 21.06 -40.12 0 -10.61 -21.06 0 121.13 -117.96 0 0 78.04 -200.93 0 0 -169.37 -418.01 0 0 100.73 -78 0 0 68.65 -57.77 0 0 -366.19 -85.25 -44.71 0 227.18 -61.43 0 0 183.71 -111.52 0 0 -305.5 -494.41 0 0 134.38 -145.59 0 0 117.71 -101.97 0 -71.96 -30.56 -75.25 33.45 -66.89 0 0 50.52 -78.08 0 0 -1680.7 19684.39 0z"/>
  <path class="fil0" d="M-0 5976.6l0 1667.53 40.91 -20.76 0 -174.55 64.91 0 0 85.04 65.68 0 0 33.36 19.48 0 0 15.41 18.77 0 0 43.74 64.44 -32.73 64.44 32.73 108.41 0 0 -347.12 88.18 -88.51 88.18 89.06 0 377.52 113.53 0 0 -21.63 124.29 0 23.49 21.47 16.92 0.16 6.58 0 0 -136.88 0 -37.83 19.73 0 0 -20.62 19.8 0 14.96 -83.19 15.12 83.19 19.8 0 0 20.62 19.73 0 0 37.83 0 136.88 89.36 0 0 -261.94 348.33 0 0 111.96 101.96 0 0 86.3 247.03 63.68 0 -135.52 30.75 -118.3 11.32 0 11.17 -80.64 8.39 0 6.61 -120.11 10.44 119.81 6.81 0 12.76 80.53 10.23 0 29.14 117.11 0 30.32 94.04 0 0 -111.13 75.96 0 0 217.92 193.34 0 0 -52.16 6.44 0 108.22 0 54.08 52.16 53.24 0 0 -300.9 170.28 0 0 148.77 125.47 0 0 -148.05 170.28 0 0 300.18 84.99 0 0 -127.46 108.92 0 0 127.46 30.49 0 0 -59.91 81.72 0 0 59.91 51.17 0 0 -182.58 72.22 0 0 182.58 26.25 0 0 -49.28 19.6 0 0 -251.1 34.98 0 0 -62.43 32.03 0 0 -41.18 26.57 0 8.91 -111.19 7.04 110.62 22.95 0 0 40.85 34.47 0 0 63.53 35.29 0 0 36.65c75.79,-12.67 143.99,8.76 143.99,50.52l0 213 56.88 0 0 -43.91 46.67 0 0 -42.56 98.77 0 0 -47.76 113.2 0 0 87.33c30.98,-5.06 59.63,2.87 60.93,17.54l8.83 0 0 -183.43 131.92 0 0 154.42 98.97 0 0 58.36 77.85 0 0 -370.71c0,-27.59 22.36,-49.95 49.95,-49.95 27.59,0 49.95,22.36 49.95,49.95l0 249.62 130.72 0 0 42.01 50.78 0 0 35.55 43.89 0 0 43.52c74.89,0 79.7,0 154.59,0l0 -366.19 154.2 0 0 75.62 47.43 0 0 38.37 67.28 0 0 57.96 44.41 0 122.58 0 0 194.24 68.57 0 0 -62.22 104.43 -49.8 94.06 51.58 0 60.45 114.91 0 0 -217.37 249.32 0 0 49.45 60.57 0 0 49.71 78.73 0 0 118.21 90.1 0 0 -366.19 138.1 0 0 252.75 54.43 0 0 79.73 66.21 0 0 -332.48 166.08 0 0 325.96 60.3 0 0 -304.23 31.12 -60.34 -5.16 0 20.92 -96.33 20.93 96.33 -5.16 0 31.12 60.34 0 344.45 242.08 0 68.97 -249.41 155.68 0.68 61.13 248.73 9.4 0 0 -389.52 18.47 49.58 62.2 -0.25 18.46 -49.33 0 286.66 115.43 0 0 -96.3 10.62 21.06 40.12 0 10.61 -21.06 0 121.13 117.96 0 0 78.04 200.93 0 0 -169.37 418.01 0 0 100.73 78 0 0 68.65 57.77 0 0 -366.19 85.25 -44.71 0 227.18 61.43 0 0 183.71 111.52 0 0 -305.5 494.41 0 0 134.38 145.59 0 0 117.71 101.97 0 71.96 -30.56 75.25 33.45 66.89 0 0 50.52 78.08 0 0 -13.18 40.91 -20.76 0 -174.55 64.91 0 0 85.04 65.68 0 0 33.36 19.48 0 0 15.41 18.77 0 0 43.74 64.44 -32.73 64.44 32.73 108.41 0 0 -347.12 88.18 -88.51 88.18 89.06 0 377.52 113.53 0 0 -21.63 124.29 0 23.49 21.47 16.92 0.16 6.58 0 0 -136.88 0 -37.83 19.73 0 0 -20.62 19.8 0 14.96 -83.19 15.12 83.19 19.8 0 0 20.62 19.73 0 0 37.83 0 136.88 89.36 0 0 -261.94 348.33 0 0 111.96 101.96 0 0 86.3 247.03 63.68 0 -135.52 30.75 -118.3 11.32 0 11.17 -80.64 8.39 0 6.61 -120.11 10.44 119.81 6.81 0 12.76 80.53 10.23 0 29.14 117.11 0 30.32 94.04 0 0 -111.13 75.96 0 0 217.92 193.34 0 0 -52.16 6.44 0 108.22 0 54.08 52.16 53.24 0 0 -300.9 170.28 0 0 148.77 125.47 0 0 -148.05 170.28 0 0 300.18 84.99 0 0 -127.46 108.92 0 0 127.46 30.49 0 0 -59.91 81.72 0 0 59.91 51.17 0 0 -182.58 72.22 0 0 182.58 26.25 0 0 -49.28 19.6 0 0 -251.1 34.98 0 0 -62.43 32.03 0 0 -41.18 26.57 0 8.91 -111.19 7.04 110.62 22.95 0 0 40.85 34.47 0 0 63.53 35.29 0 0 36.65c75.79,-12.67 143.99,8.76 143.99,50.52l0 213 56.88 0 0 -43.91 46.67 0 0 -42.56 98.77 0 0 -47.76 113.2 0 0 87.33c30.98,-5.06 59.63,2.87 60.93,17.54l8.83 0 0 -183.43 131.92 0 0 154.42 98.97 0 0 58.36 77.85 0 0 -370.71c0,-27.59 22.36,-49.95 49.95,-49.95 27.59,0 49.95,22.36 49.95,49.95l0 249.62 130.72 0 0 42.01 50.78 0 0 35.55 43.89 0 0 43.52c74.89,0 79.7,0 154.59,0l0 -366.19 154.2 0 0 75.62 47.43 0 0 38.37 67.28 0 0 57.96 44.41 0 122.58 0 0 194.24 68.57 0 0 -62.22 104.43 -49.8 94.06 51.58 0 60.45 114.91 0 0 -217.37 249.32 0 0 49.45 60.57 0 0 49.71 78.73 0 0 118.21 90.1 0 0 -366.19 138.1 0 0 252.75 54.43 0 0 79.73 66.21 0 0 -332.48 166.08 0 0 325.96 60.3 0 0 -304.23 31.12 -60.34 -5.16 0 20.92 -96.33 20.93 96.33 -5.16 0 31.12 60.34 0 344.45 242.08 0 68.97 -249.41 155.68 0.68 61.13 248.73 9.4 0 0 -389.52 18.47 49.58 62.2 -0.25 18.46 -49.33 0 286.66 115.43 0 0 -96.3 10.62 21.06 40.12 0 10.61 -21.06 0 121.13 117.96 0 0 78.04 200.93 0 0 -169.37 418.01 0 0 100.73 78 0 0 68.65 57.77 0 0 -366.19 85.25 -44.71 0 227.18 61.43 0 0 183.71 111.52 0 0 -305.5 494.41 0 0 134.38 145.59 0 0 117.71 101.97 0 71.96 -30.56 75.25 33.45 66.89 0 0 50.52 78.08 0 0 -1680.7 -19684.39 0z"/>
  <path class="fil1" d="M19684.39 5122.8l0 1667.53 -40.91 -20.76 0 -174.55 -64.91 0 0 85.04 -65.68 0 0 33.36 -19.48 0 0 15.41 -18.77 0 0 43.74 -64.44 -32.73 -64.44 32.73 -108.41 0 0 -347.12 -88.18 -88.51 -88.18 89.06 0 377.52 -113.53 0 0 -21.63 -124.29 0 -23.49 21.47 -16.92 0.16 -6.58 0 0 -136.88 0 -37.83 -19.73 0 0 -20.62 -19.8 0 -14.96 -83.19 -15.12 83.19 -19.8 0 0 20.62 -19.73 0 0 37.83 0 136.88 -89.36 0 0 -261.94 -348.33 0 0 111.96 -101.96 0 0 86.3 -247.03 63.68 0 -135.52 -30.75 -118.3 -11.32 0 -11.17 -80.64 -8.39 0 -6.61 -120.11 -10.44 119.81 -6.81 0 -12.76 80.53 -10.23 0 -29.14 117.11 0 30.32 -94.04 0 0 -111.13 -75.96 0 0 217.92 -193.34 0 0 -52.16 -6.44 0 -108.22 0 -54.08 52.16 -53.24 0 0 -300.9 -170.28 0 0 148.77 -125.47 0 0 -148.05 -170.28 0 0 300.18 -84.99 0 0 -127.46 -108.92 0 0 127.46 -30.49 0 0 -59.91 -81.72 0 0 59.91 -51.17 0 0 -182.58 -72.22 0 0 182.58 -26.25 0 0 -49.28 -19.6 0 0 -251.1 -34.98 0 0 -62.43 -32.03 0 0 -41.18 -26.57 0 -8.91 -111.19 -7.04 110.62 -22.95 0 0 40.85 -34.47 0 0 63.53 -35.29 0 0 36.65c-75.79,-12.67 -143.99,8.76 -143.99,50.52l0 213 -56.88 0 0 -43.91 -46.67 0 0 -42.56 -98.77 0 0 -47.76 -113.2 0 0 87.33c-30.98,-5.06 -59.63,2.87 -60.93,17.54l-8.83 0 0 -183.43 -131.92 0 0 154.42 -98.97 0 0 58.36 -77.85 0 0 -370.71c0,-27.59 -22.36,-49.95 -49.95,-49.95 -27.59,0 -49.95,22.36 -49.95,49.95l0 249.62 -130.72 0 0 42.01 -50.78 0 0 35.55 -43.89 0 0 43.52c-74.89,0 -79.7,0 -154.59,0l0 -366.19 -154.2 0 0 75.62 -47.43 0 0 38.37 -67.28 0 0 57.96 -44.41 0 -122.58 0 0 194.24 -68.57 0 0 -62.22 -104.43 -49.8 -94.06 51.58 0 60.45 -114.91 0 0 -217.37 -249.32 0 0 49.45 -60.57 0 0 49.71 -78.73 0 0 118.21 -90.1 0 0 -366.19 -138.1 0 0 252.75 -54.43 0 0 79.73 -66.21 0 0 -332.48 -166.08 0 0 325.96 -60.3 0 0 -304.23 -31.12 -60.34 5.16 0 -20.92 -96.33 -20.93 96.33 5.16 0 -31.12 60.34 0 344.45 -242.08 0 -68.97 -249.41 -155.68 0.68 -61.13 248.73 -9.4 0 0 -389.52 -18.47 49.58 -62.2 -0.25 -18.46 -49.33 0 286.66 -115.43 0 0 -96.3 -10.62 21.06 -40.12 0 -10.61 -21.06 0 121.13 -117.96 0 0 78.04 -200.93 0 0 -169.37 -418.01 0 0 100.73 -78 0 0 68.65 -57.77 0 0 -366.19 -85.25 -44.71 0 227.18 -61.43 0 0 183.71 -111.52 0 0 -305.5 -494.41 0 0 134.38 -145.59 0 0 117.71 -101.97 0 -71.96 -30.56 -75.25 33.45 -66.89 0 0 50.52 -78.08 0 0 -13.18 -40.91 -20.76 0 -174.55 -64.91 0 0 85.04 -65.68 0 0 33.36 -19.48 0 0 15.41 -18.77 0 0 43.74 -64.44 -32.73 -64.44 32.73 -108.41 0 0 -347.12 -88.18 -88.51 -88.18 89.06 0 377.52 -113.53 0 0 -21.63 -124.29 0 -23.49 21.47 -16.92 0.16 -6.58 0 0 -136.88 0 -37.83 -19.73 0 0 -20.62 -19.8 0 -14.96 -83.19 -15.12 83.19 -19.8 0 0 20.62 -19.73 0 0 37.83 0 136.88 -89.36 0 0 -261.94 -348.33 0 0 111.96 -101.96 0 0 86.3 -247.03 63.68 0 -135.52 -30.75 -118.3 -11.32 0 -11.17 -80.64 -8.39 0 -6.61 -120.11 -10.44 119.81 -6.81 0 -12.76 80.53 -10.23 0 -29.14 117.11 0 30.32 -94.04 0 0 -111.13 -75.96 0 0 217.92 -193.34 0 0 -52.16 -6.44 0 -108.22 0 -54.08 52.16 -53.24 0 0 -300.9 -170.28 0 0 148.77 -125.47 0 0 -148.05 -170.28 0 0 300.18 -84.99 0 0 -127.46 -108.92 0 0 127.46 -30.49 0 0 -59.91 -81.72 0 0 59.91 -51.17 0 0 -182.58 -72.22 0 0 182.58 -26.25 0 0 -49.28 -19.6 0 0 -251.1 -34.98 0 0 -62.43 -32.03 0 0 -41.18 -26.57 0 -8.91 -111.19 -7.04 110.62 -22.95 0 0 40.85 -34.47 0 0 63.53 -35.29 0 0 36.65c-75.79,-12.67 -143.99,8.76 -143.99,50.52l0 213 -56.88 0 0 -43.91 -46.67 0 0 -42.56 -98.77 0 0 -47.76 -113.2 0 0 87.33c-30.98,-5.06 -59.63,2.87 -60.93,17.54l-8.83 0 0 -183.43 -131.92 0 0 154.42 -98.97 0 0 58.36 -77.85 0 0 -370.71c0,-27.59 -22.36,-49.95 -49.95,-49.95 -27.59,0 -49.95,22.36 -49.95,49.95l0 249.62 -130.72 0 0 42.01 -50.78 0 0 35.55 -43.89 0 0 43.52c-74.89,0 -79.7,0 -154.59,0l0 -366.19 -154.2 0 0 75.62 -47.43 0 0 38.37 -67.28 0 0 57.96 -44.41 0 -122.58 0 0 194.24 -68.57 0 0 -62.22 -104.43 -49.8 -94.06 51.58 0 60.45 -114.91 0 0 -217.37 -249.32 0 0 49.45 -60.57 0 0 49.71 -78.73 0 0 118.21 -90.1 0 0 -366.19 -138.1 0 0 252.75 -54.43 0 0 79.73 -66.21 0 0 -332.48 -166.08 0 0 325.96 -60.3 0 0 -304.23 -31.12 -60.34 5.16 0 -20.92 -96.33 -20.93 96.33 5.16 0 -31.12 60.34 0 344.45 -242.08 0 -68.97 -249.41 -155.68 0.68 -61.13 248.73 -9.4 0 0 -389.52 -18.47 49.58 -62.2 -0.25 -18.46 -49.33 0 286.66 -115.43 0 0 -96.3 -10.62 21.06 -40.12 0 -10.61 -21.06 0 121.13 -117.96 0 0 78.04 -200.93 0 0 -169.37 -418.01 0 0 100.73 -78 0 0 68.65 -57.77 0 0 -366.19 -85.25 -44.71 0 227.18 -61.43 0 0 183.71 -111.52 0 0 -305.5 -494.41 0 0 134.38 -145.59 0 0 117.71 -101.97 0 -71.96 -30.56 -75.25 33.45 -66.89 0 0 50.52 -78.08 0 0 -1680.7 19684.39 0z"/>
  <path class="fil0" d="M-0 4269l0 1667.53 40.91 -20.76 0 -174.55 64.91 0 0 85.04 65.68 0 0 33.36 19.48 0 0 15.41 18.77 0 0 43.74 64.44 -32.73 64.44 32.73 108.41 0 0 -347.12 88.18 -88.51 88.18 89.06 0 377.52 113.53 0 0 -21.63 124.29 0 23.49 21.47 16.92 0.16 6.58 0 0 -136.88 0 -37.83 19.73 0 0 -20.62 19.8 0 14.96 -83.19 15.12 83.19 19.8 0 0 20.62 19.73 0 0 37.83 0 136.88 89.36 0 0 -261.94 348.33 0 0 111.96 101.96 0 0 86.3 247.03 63.68 0 -135.52 30.75 -118.3 11.32 0 11.17 -80.64 8.39 0 6.61 -120.11 10.44 119.81 6.81 0 12.76 80.53 10.23 0 29.14 117.11 0 30.32 94.04 0 0 -111.13 75.96 0 0 217.92 193.34 0 0 -52.16 6.44 0 108.22 0 54.08 52.16 53.24 0 0 -300.9 170.28 0 0 148.77 125.47 0 0 -148.05 170.28 0 0 300.18 84.99 0 0 -127.46 108.92 0 0 127.46 30.49 0 0 -59.91 81.72 0 0 59.91 51.17 0 0 -182.58 72.22 0 0 182.58 26.25 0 0 -49.28 19.6 0 0 -251.1 34.98 0 0 -62.43 32.03 0 0 -41.18 26.57 0 8.91 -111.19 7.04 110.62 22.95 0 0 40.85 34.47 0 0 63.53 35.29 0 0 36.65c75.79,-12.67 143.99,8.76 143.99,50.52l0 213 56.88 0 0 -43.91 46.67 0 0 -42.56 98.77 0 0 -47.76 113.2 0 0 87.33c30.98,-5.06 59.63,2.87 60.93,17.54l8.83 0 0 -183.43 131.92 0 0 154.42 98.97 0 0 58.36 77.85 0 0 -370.71c0,-27.59 22.36,-49.95 49.95,-49.95 27.59,0 49.95,22.36 49.95,49.95l0 249.62 130.72 0 0 42.01 50.78 0 0 35.55 43.89 0 0 43.52c74.89,0 79.7,0 154.59,0l0 -366.19 154.2 0 0 75.62 47.43 0 0 38.37 67.28 0 0 57.96 44.41 0 122.58 0 0 194.24 68.57 0 0 -62.22 104.43 -49.8 94.06 51.58 0 60.45 114.91 0 0 -217.37 249.32 0 0 49.45 60.57 0 0 49.71 78.73 0 0 118.21 90.1 0 0 -366.19 138.1 0 0 252.75 54.43 0 0 79.73 66.21 0 0 -332.48 166.08 0 0 325.96 60.3 0 0 -304.23 31.12 -60.34 -5.16 0 20.92 -96.33 20.93 96.33 -5.16 0 31.12 60.34 0 344.45 242.08 0 68.97 -249.41 155.68 0.68 61.13 248.73 9.4 0 0 -389.52 18.47 49.58 62.2 -0.25 18.46 -49.33 0 286.66 115.43 0 0 -96.3 10.62 21.06 40.12 0 10.61 -21.06 0 121.13 117.96 0 0 78.04 200.93 0 0 -169.37 418.01 0 0 100.73 78 0 0 68.65 57.77 0 0 -366.19 85.25 -44.71 0 227.18 61.43 0 0 183.71 111.52 0 0 -305.5 494.41 0 0 134.38 145.59 0 0 117.71 101.97 0 71.96 -30.56 75.25 33.45 66.89 0 0 50.52 78.08 0 0 -13.18 40.91 -20.76 0 -174.55 64.91 0 0 85.04 65.68 0 0 33.36 19.48 0 0 15.41 18.77 0 0 43.74 64.44 -32.73 64.44 32.73 108.41 0 0 -347.12 88.18 -88.51 88.18 89.06 0 377.52 113.53 0 0 -21.63 124.29 0 23.49 21.47 16.92 0.16 6.58 0 0 -136.88 0 -37.83 19.73 0 0 -20.62 19.8 0 14.96 -83.19 15.12 83.19 19.8 0 0 20.62 19.73 0 0 37.83 0 136.88 89.36 0 0 -261.94 348.33 0 0 111.96 101.96 0 0 86.3 247.03 63.68 0 -135.52 30.75 -118.3 11.32 0 11.17 -80.64 8.39 0 6.61 -120.11 10.44 119.81 6.81 0 12.76 80.53 10.23 0 29.14 117.11 0 30.32 94.04 0 0 -111.13 75.96 0 0 217.92 193.34 0 0 -52.16 6.44 0 108.22 0 54.08 52.16 53.24 0 0 -300.9 170.28 0 0 148.77 125.47 0 0 -148.05 170.28 0 0 300.18 84.99 0 0 -127.46 108.92 0 0 127.46 30.49 0 0 -59.91 81.72 0 0 59.91 51.17 0 0 -182.58 72.22 0 0 182.58 26.25 0 0 -49.28 19.6 0 0 -251.1 34.98 0 0 -62.43 32.03 0 0 -41.18 26.57 0 8.91 -111.19 7.04 110.62 22.95 0 0 40.85 34.47 0 0 63.53 35.29 0 0 36.65c75.79,-12.67 143.99,8.76 143.99,50.52l0 213 56.88 0 0 -43.91 46.67 0 0 -42.56 98.77 0 0 -47.76 113.2 0 0 87.33c30.98,-5.06 59.63,2.87 60.93,17.54l8.83 0 0 -183.43 131.92 0 0 154.42 98.97 0 0 58.36 77.85 0 0 -370.71c0,-27.59 22.36,-49.95 49.95,-49.95 27.59,0 49.95,22.36 49.95,49.95l0 249.62 130.72 0 0 42.01 50.78 0 0 35.55 43.89 0 0 43.52c74.89,0 79.7,0 154.59,0l0 -366.19 154.2 0 0 75.62 47.43 0 0 38.37 67.28 0 0 57.96 44.41 0 122.58 0 0 194.24 68.57 0 0 -62.22 104.43 -49.8 94.06 51.58 0 60.45 114.91 0 0 -217.37 249.32 0 0 49.45 60.57 0 0 49.71 78.73 0 0 118.21 90.1 0 0 -366.19 138.1 0 0 252.75 54.43 0 0 79.73 66.21 0 0 -332.48 166.08 0 0 325.96 60.3 0 0 -304.23 31.12 -60.34 -5.16 0 20.92 -96.33 20.93 96.33 -5.16 0 31.12 60.34 0 344.45 242.08 0 68.97 -249.41 155.68 0.68 61.13 248.73 9.4 0 0 -389.52 18.47 49.58 62.2 -0.25 18.46 -49.33 0 286.66 115.43 0 0 -96.3 10.62 21.06 40.12 0 10.61 -21.06 0 121.13 117.96 0 0 78.04 200.93 0 0 -169.37 418.01 0 0 100.73 78 0 0 68.65 57.77 0 0 -366.19 85.25 -44.71 0 227.18 61.43 0 0 183.71 111.52 0 0 -305.5 494.41 0 0 134.38 145.59 0 0 117.71 101.97 0 71.96 -30.56 75.25 33.45 66.89 0 0 50.52 78.08 0 0 -1680.7 -19684.39 0z"/>
  <path class="fil1" d="M19684.39 3415.2l0 1667.53 -40.91 -20.76 0 -174.55 -64.91 0 0 85.04 -65.68 0 0 33.36 -19.48 0 0 15.41 -18.77 0 0 43.74 -64.44 -32.73 -64.44 32.73 -108.41 0 0 -347.12 -88.18 -88.51 -88.18 89.06 0 377.52 -113.53 0 0 -21.63 -124.29 0 -23.49 21.47 -16.92 0.16 -6.58 0 0 -136.88 0 -37.83 -19.73 0 0 -20.62 -19.8 0 -14.96 -83.19 -15.12 83.19 -19.8 0 0 20.62 -19.73 0 0 37.83 0 136.88 -89.36 0 0 -261.94 -348.33 0 0 111.96 -101.96 0 0 86.3 -247.03 63.68 0 -135.52 -30.75 -118.3 -11.32 0 -11.17 -80.64 -8.39 0 -6.61 -120.11 -10.44 119.81 -6.81 0 -12.76 80.53 -10.23 0 -29.14 117.11 0 30.32 -94.04 0 0 -111.13 -75.96 0 0 217.92 -193.34 0 0 -52.16 -6.44 0 -108.22 0 -54.08 52.16 -53.24 0 0 -300.9 -170.28 0 0 148.77 -125.47 0 0 -148.05 -170.28 0 0 300.18 -84.99 0 0 -127.46 -108.92 0 0 127.46 -30.49 0 0 -59.91 -81.72 0 0 59.91 -51.17 0 0 -182.58 -72.22 0 0 182.58 -26.25 0 0 -49.28 -19.6 0 0 -251.1 -34.98 0 0 -62.43 -32.03 0 0 -41.18 -26.57 0 -8.91 -111.19 -7.04 110.62 -22.95 0 0 40.85 -34.47 0 0 63.53 -35.29 0 0 36.65c-75.79,-12.67 -143.99,8.76 -143.99,50.52l0 213 -56.88 0 0 -43.91 -46.67 0 0 -42.56 -98.77 0 0 -47.76 -113.2 0 0 87.33c-30.98,-5.06 -59.63,2.87 -60.93,17.54l-8.83 0 0 -183.43 -131.92 0 0 154.42 -98.97 0 0 58.36 -77.85 0 0 -370.71c0,-27.59 -22.36,-49.95 -49.95,-49.95 -27.59,0 -49.95,22.36 -49.95,49.95l0 249.62 -130.72 0 0 42.01 -50.78 0 0 35.55 -43.89 0 0 43.52c-74.89,0 -79.7,0 -154.59,0l0 -366.19 -154.2 0 0 75.62 -47.43 0 0 38.37 -67.28 0 0 57.96 -44.41 0 -122.58 0 0 194.24 -68.57 0 0 -62.22 -104.43 -49.8 -94.06 51.58 0 60.45 -114.91 0 0 -217.37 -249.32 0 0 49.45 -60.57 0 0 49.71 -78.73 0 0 118.21 -90.1 0 0 -366.19 -138.1 0 0 252.75 -54.43 0 0 79.73 -66.21 0 0 -332.48 -166.08 0 0 325.96 -60.3 0 0 -304.23 -31.12 -60.34 5.16 0 -20.92 -96.33 -20.93 96.33 5.16 0 -31.12 60.34 0 344.45 -242.08 0 -68.97 -249.41 -155.68 0.68 -61.13 248.73 -9.4 0 0 -389.52 -18.47 49.58 -62.2 -0.25 -18.46 -49.33 0 286.66 -115.43 0 0 -96.3 -10.62 21.06 -40.12 0 -10.61 -21.06 0 121.13 -117.96 0 0 78.04 -200.93 0 0 -169.37 -418.01 0 0 100.73 -78 0 0 68.65 -57.77 0 0 -366.19 -85.25 -44.71 0 227.18 -61.43 0 0 183.71 -111.52 0 0 -305.5 -494.41 0 0 134.38 -145.59 0 0 117.71 -101.97 0 -71.96 -30.56 -75.25 33.45 -66.89 0 0 50.52 -78.08 0 0 -13.18 -40.91 -20.76 0 -174.55 -64.91 0 0 85.04 -65.68 0 0 33.36 -19.48 0 0 15.41 -18.77 0 0 43.74 -64.44 -32.73 -64.44 32.73 -108.41 0 0 -347.12 -88.18 -88.51 -88.18 89.06 0 377.52 -113.53 0 0 -21.63 -124.29 0 -23.49 21.47 -16.92 0.16 -6.58 0 0 -136.88 0 -37.83 -19.73 0 0 -20.62 -19.8 0 -14.96 -83.19 -15.12 83.19 -19.8 0 0 20.62 -19.73 0 0 37.83 0 136.88 -89.36 0 0 -261.94 -348.33 0 0 111.96 -101.96 0 0 86.3 -247.03 63.68 0 -135.52 -30.75 -118.3 -11.32 0 -11.17 -80.64 -8.39 0 -6.61 -120.11 -10.44 119.81 -6.81 0 -12.76 80.53 -10.23 0 -29.14 117.11 0 30.32 -94.04 0 0 -111.13 -75.96 0 0 217.92 -193.34 0 0 -52.16 -6.44 0 -108.22 0 -54.08 52.16 -53.24 0 0 -300.9 -170.28 0 0 148.77 -125.47 0 0 -148.05 -170.28 0 0 300.18 -84.99 0 0 -127.46 -108.92 0 0 127.46 -30.49 0 0 -59.91 -81.72 0 0 59.91 -51.17 0 0 -182.58 -72.22 0 0 182.58 -26.25 0 0 -49.28 -19.6 0 0 -251.1 -34.98 0 0 -62.43 -32.03 0 0 -41.18 -26.57 0 -8.91 -111.19 -7.04 110.62 -22.95 0 0 40.85 -34.47 0 0 63.53 -35.29 0 0 36.65c-75.79,-12.67 -143.99,8.76 -143.99,50.52l0 213 -56.88 0 0 -43.91 -46.67 0 0 -42.56 -98.77 0 0 -47.76 -113.2 0 0 87.33c-30.98,-5.06 -59.63,2.87 -60.93,17.54l-8.83 0 0 -183.43 -131.92 0 0 154.42 -98.97 0 0 58.36 -77.85 0 0 -370.71c0,-27.59 -22.36,-49.95 -49.95,-49.95 -27.59,0 -49.95,22.36 -49.95,49.95l0 249.62 -130.72 0 0 42.01 -50.78 0 0 35.55 -43.89 0 0 43.52c-74.89,0 -79.7,0 -154.59,0l0 -366.19 -154.2 0 0 75.62 -47.43 0 0 38.37 -67.28 0 0 57.96 -44.41 0 -122.58 0 0 194.24 -68.57 0 0 -62.22 -104.43 -49.8 -94.06 51.58 0 60.45 -114.91 0 0 -217.37 -249.32 0 0 49.45 -60.57 0 0 49.71 -78.73 0 0 118.21 -90.1 0 0 -366.19 -138.1 0 0 252.75 -54.43 0 0 79.73 -66.21 0 0 -332.48 -166.08 0 0 325.96 -60.3 0 0 -304.23 -31.12 -60.34 5.16 0 -20.92 -96.33 -20.93 96.33 5.16 0 -31.12 60.34 0 344.45 -242.08 0 -68.97 -249.41 -155.68 0.68 -61.13 248.73 -9.4 0 0 -389.52 -18.47 49.58 -62.2 -0.25 -18.46 -49.33 0 286.66 -115.43 0 0 -96.3 -10.62 21.06 -40.12 0 -10.61 -21.06 0 121.13 -117.96 0 0 78.04 -200.93 0 0 -169.37 -418.01 0 0 100.73 -78 0 0 68.65 -57.77 0 0 -366.19 -85.25 -44.71 0 227.18 -61.43 0 0 183.71 -111.52 0 0 -305.5 -494.41 0 0 134.38 -145.59 0 0 117.71 -101.97 0 -71.96 -30.56 -75.25 33.45 -66.89 0 0 50.52 -78.08 0 0 -1680.7 19684.39 0z"/>
  <path class="fil0" d="M-0 2561.4l0 1667.53 40.91 -20.76 0 -174.55 64.91 0 0 85.04 65.68 0 0 33.36 19.48 0 0 15.41 18.77 0 0 43.74 64.44 -32.73 64.44 32.73 108.41 0 0 -347.12 88.18 -88.51 88.18 89.06 0 377.52 113.53 0 0 -21.63 124.29 0 23.49 21.47 16.92 0.16 6.58 0 0 -136.88 0 -37.83 19.73 0 0 -20.62 19.8 0 14.96 -83.19 15.12 83.19 19.8 0 0 20.62 19.73 0 0 37.83 0 136.88 89.36 0 0 -261.94 348.33 0 0 111.96 101.96 0 0 86.3 247.03 63.68 0 -135.52 30.75 -118.3 11.32 0 11.17 -80.64 8.39 0 6.61 -120.11 10.44 119.81 6.81 0 12.76 80.53 10.23 0 29.14 117.11 0 30.32 94.04 0 0 -111.13 75.96 0 0 217.92 193.34 0 0 -52.16 6.44 0 108.22 0 54.08 52.16 53.24 0 0 -300.9 170.28 0 0 148.77 125.47 0 0 -148.05 170.28 0 0 300.18 84.99 0 0 -127.46 108.92 0 0 127.46 30.49 0 0 -59.91 81.72 0 0 59.91 51.17 0 0 -182.58 72.22 0 0 182.58 26.25 0 0 -49.28 19.6 0 0 -251.1 34.98 0 0 -62.43 32.03 0 0 -41.18 26.57 0 8.91 -111.19 7.04 110.62 22.95 0 0 40.85 34.47 0 0 63.53 35.29 0 0 36.65c75.79,-12.67 143.99,8.76 143.99,50.52l0 213 56.88 0 0 -43.91 46.67 0 0 -42.56 98.77 0 0 -47.76 113.2 0 0 87.33c30.98,-5.06 59.63,2.87 60.93,17.54l8.83 0 0 -183.43 131.92 0 0 154.42 98.97 0 0 58.36 77.85 0 0 -370.71c0,-27.59 22.36,-49.95 49.95,-49.95 27.59,0 49.95,22.36 49.95,49.95l0 249.62 130.72 0 0 42.01 50.78 0 0 35.55 43.89 0 0 43.52c74.89,0 79.7,0 154.59,0l0 -366.19 154.2 0 0 75.62 47.43 0 0 38.37 67.28 0 0 57.96 44.41 0 122.58 0 0 194.24 68.57 0 0 -62.22 104.43 -49.8 94.06 51.58 0 60.45 114.91 0 0 -217.37 249.32 0 0 49.45 60.57 0 0 49.71 78.73 0 0 118.21 90.1 0 0 -366.19 138.1 0 0 252.75 54.43 0 0 79.73 66.21 0 0 -332.48 166.08 0 0 325.96 60.3 0 0 -304.23 31.12 -60.34 -5.16 0 20.92 -96.33 20.93 96.33 -5.16 0 31.12 60.34 0 344.45 242.08 0 68.97 -249.41 155.68 0.68 61.13 248.73 9.4 0 0 -389.52 18.47 49.58 62.2 -0.25 18.46 -49.33 0 286.66 115.43 0 0 -96.3 10.62 21.06 40.12 0 10.61 -21.06 0 121.13 117.96 0 0 78.04 200.93 0 0 -169.37 418.01 0 0 100.73 78 0 0 68.65 57.77 0 0 -366.19 85.25 -44.71 0 227.18 61.43 0 0 183.71 111.52 0 0 -305.5 494.41 0 0 134.38 145.59 0 0 117.71 101.97 0 71.96 -30.56 75.25 33.45 66.89 0 0 50.52 78.08 0 0 -13.18 40.91 -20.76 0 -174.55 64.91 0 0 85.04 65.68 0 0 33.36 19.48 0 0 15.41 18.77 0 0 43.74 64.44 -32.73 64.44 32.73 108.41 0 0 -347.12 88.18 -88.51 88.18 89.06 0 377.52 113.53 0 0 -21.63 124.29 0 23.49 21.47 16.92 0.16 6.58 0 0 -136.88 0 -37.83 19.73 0 0 -20.62 19.8 0 14.96 -83.19 15.12 83.19 19.8 0 0 20.62 19.73 0 0 37.83 0 136.88 89.36 0 0 -261.94 348.33 0 0 111.96 101.96 0 0 86.3 247.03 63.68 0 -135.52 30.75 -118.3 11.32 0 11.17 -80.64 8.39 0 6.61 -120.11 10.44 119.81 6.81 0 12.76 80.53 10.23 0 29.14 117.11 0 30.32 94.04 0 0 -111.13 75.96 0 0 217.92 193.34 0 0 -52.16 6.44 0 108.22 0 54.08 52.16 53.24 0 0 -300.9 170.28 0 0 148.77 125.47 0 0 -148.05 170.28 0 0 300.18 84.99 0 0 -127.46 108.92 0 0 127.46 30.49 0 0 -59.91 81.72 0 0 59.91 51.17 0 0 -182.58 72.22 0 0 182.58 26.25 0 0 -49.28 19.6 0 0 -251.1 34.98 0 0 -62.43 32.03 0 0 -41.18 26.57 0 8.91 -111.19 7.04 110.62 22.95 0 0 40.85 34.47 0 0 63.53 35.29 0 0 36.65c75.79,-12.67 143.99,8.76 143.99,50.52l0 213 56.88 0 0 -43.91 46.67 0 0 -42.56 98.77 0 0 -47.76 113.2 0 0 87.33c30.98,-5.06 59.63,2.87 60.93,17.54l8.83 0 0 -183.43 131.92 0 0 154.42 98.97 0 0 58.36 77.85 0 0 -370.71c0,-27.59 22.36,-49.95 49.95,-49.95 27.59,0 49.95,22.36 49.95,49.95l0 249.62 130.72 0 0 42.01 50.78 0 0 35.55 43.89 0 0 43.52c74.89,0 79.7,0 154.59,0l0 -366.19 154.2 0 0 75.62 47.43 0 0 38.37 67.28 0 0 57.96 44.41 0 122.58 0 0 194.24 68.57 0 0 -62.22 104.43 -49.8 94.06 51.58 0 60.45 114.91 0 0 -217.37 249.32 0 0 49.45 60.57 0 0 49.71 78.73 0 0 118.21 90.1 0 0 -366.19 138.1 0 0 252.75 54.43 0 0 79.73 66.21 0 0 -332.48 166.08 0 0 325.96 60.3 0 0 -304.23 31.12 -60.34 -5.16 0 20.92 -96.33 20.93 96.33 -5.16 0 31.12 60.34 0 344.45 242.08 0 68.97 -249.41 155.68 0.68 61.13 248.73 9.4 0 0 -389.52 18.47 49.58 62.2 -0.25 18.46 -49.33 0 286.66 115.43 0 0 -96.3 10.62 21.06 40.12 0 10.61 -21.06 0 121.13 117.96 0 0 78.04 200.93 0 0 -169.37 418.01 0 0 100.73 78 0 0 68.65 57.77 0 0 -366.19 85.25 -44.71 0 227.18 61.43 0 0 183.71 111.52 0 0 -305.5 494.41 0 0 134.38 145.59 0 0 117.71 101.97 0 71.96 -30.56 75.25 33.45 66.89 0 0 50.52 78.08 0 0 -1680.7 -19684.39 0z"/>
  <path class="fil1" d="M19684.39 1707.6l0 1667.53 -40.91 -20.76 0 -174.55 -64.91 0 0 85.04 -65.68 0 0 33.36 -19.48 0 0 15.41 -18.77 0 0 43.74 -64.44 -32.73 -64.44 32.73 -108.41 0 0 -347.12 -88.18 -88.51 -88.18 89.06 0 377.52 -113.53 0 0 -21.63 -124.29 0 -23.49 21.47 -16.92 0.16 -6.58 0 0 -136.88 0 -37.83 -19.73 0 0 -20.62 -19.8 0 -14.96 -83.19 -15.12 83.19 -19.8 0 0 20.62 -19.73 0 0 37.83 0 136.88 -89.36 0 0 -261.94 -348.33 0 0 111.96 -101.96 0 0 86.3 -247.03 63.68 0 -135.52 -30.75 -118.3 -11.32 0 -11.17 -80.64 -8.39 0 -6.61 -120.11 -10.44 119.81 -6.81 0 -12.76 80.53 -10.23 0 -29.14 117.11 0 30.32 -94.04 0 0 -111.13 -75.96 0 0 217.92 -193.34 0 0 -52.16 -6.44 0 -108.22 0 -54.08 52.16 -53.24 0 0 -300.9 -170.28 0 0 148.77 -125.47 0 0 -148.05 -170.28 0 0 300.18 -84.99 0 0 -127.46 -108.92 0 0 127.46 -30.49 0 0 -59.91 -81.72 0 0 59.91 -51.17 0 0 -182.58 -72.22 0 0 182.58 -26.25 0 0 -49.28 -19.6 0 0 -251.1 -34.98 0 0 -62.43 -32.03 0 0 -41.18 -26.57 0 -8.91 -111.19 -7.04 110.62 -22.95 0 0 40.85 -34.47 0 0 63.53 -35.29 0 0 36.65c-75.79,-12.67 -143.99,8.76 -143.99,50.52l0 213 -56.88 0 0 -43.91 -46.67 0 0 -42.56 -98.77 0 0 -47.76 -113.2 0 0 87.33c-30.98,-5.06 -59.63,2.87 -60.93,17.54l-8.83 0 0 -183.43 -131.92 0 0 154.42 -98.97 0 0 58.36 -77.85 0 0 -370.71c0,-27.59 -22.36,-49.95 -49.95,-49.95 -27.59,0 -49.95,22.36 -49.95,49.95l0 249.62 -130.72 0 0 42.01 -50.78 0 0 35.55 -43.89 0 0 43.52c-74.89,0 -79.7,0 -154.59,0l0 -366.19 -154.2 0 0 75.62 -47.43 0 0 38.37 -67.28 0 0 57.96 -44.41 0 -122.58 0 0 194.24 -68.57 0 0 -62.22 -104.43 -49.8 -94.06 51.58 0 60.45 -114.91 0 0 -217.37 -249.32 0 0 49.45 -60.57 0 0 49.71 -78.73 0 0 118.21 -90.1 0 0 -366.19 -138.1 0 0 252.75 -54.43 0 0 79.73 -66.21 0 0 -332.48 -166.08 0 0 325.96 -60.3 0 0 -304.23 -31.12 -60.34 5.16 0 -20.92 -96.33 -20.93 96.33 5.16 0 -31.12 60.34 0 344.45 -242.08 0 -68.97 -249.41 -155.68 0.68 -61.13 248.73 -9.4 0 0 -389.52 -18.47 49.58 -62.2 -0.25 -18.46 -49.33 0 286.66 -115.43 0 0 -96.3 -10.62 21.06 -40.12 0 -10.61 -21.06 0 121.13 -117.96 0 0 78.04 -200.93 0 0 -169.37 -418.01 0 0 100.73 -78 0 0 68.65 -57.77 0 0 -366.19 -85.25 -44.71 0 227.18 -61.43 0 0 183.71 -111.52 0 0 -305.5 -494.41 0 0 134.38 -145.59 0 0 117.71 -101.97 0 -71.96 -30.56 -75.25 33.45 -66.89 0 0 50.52 -78.08 0 0 -13.18 -40.91 -20.76 0 -174.55 -64.91 0 0 85.04 -65.68 0 0 33.36 -19.48 0 0 15.41 -18.77 0 0 43.74 -64.44 -32.73 -64.44 32.73 -108.41 0 0 -347.12 -88.18 -88.51 -88.18 89.06 0 377.52 -113.53 0 0 -21.63 -124.29 0 -23.49 21.47 -16.92 0.16 -6.58 0 0 -136.88 0 -37.83 -19.73 0 0 -20.62 -19.8 0 -14.96 -83.19 -15.12 83.19 -19.8 0 0 20.62 -19.73 0 0 37.83 0 136.88 -89.36 0 0 -261.94 -348.33 0 0 111.96 -101.96 0 0 86.3 -247.03 63.68 0 -135.52 -30.75 -118.3 -11.32 0 -11.17 -80.64 -8.39 0 -6.61 -120.11 -10.44 119.81 -6.81 0 -12.76 80.53 -10.23 0 -29.14 117.11 0 30.32 -94.04 0 0 -111.13 -75.96 0 0 217.92 -193.34 0 0 -52.16 -6.44 0 -108.22 0 -54.08 52.16 -53.24 0 0 -300.9 -170.28 0 0 148.77 -125.47 0 0 -148.05 -170.28 0 0 300.18 -84.99 0 0 -127.46 -108.92 0 0 127.46 -30.49 0 0 -59.91 -81.72 0 0 59.91 -51.17 0 0 -182.58 -72.22 0 0 182.58 -26.25 0 0 -49.28 -19.6 0 0 -251.1 -34.98 0 0 -62.43 -32.03 0 0 -41.18 -26.57 0 -8.91 -111.19 -7.04 110.62 -22.95 0 0 40.85 -34.47 0 0 63.53 -35.29 0 0 36.65c-75.79,-12.67 -143.99,8.76 -143.99,50.52l0 213 -56.88 0 0 -43.91 -46.67 0 0 -42.56 -98.77 0 0 -47.76 -113.2 0 0 87.33c-30.98,-5.06 -59.63,2.87 -60.93,17.54l-8.83 0 0 -183.43 -131.92 0 0 154.42 -98.97 0 0 58.36 -77.85 0 0 -370.71c0,-27.59 -22.36,-49.95 -49.95,-49.95 -27.59,0 -49.95,22.36 -49.95,49.95l0 249.62 -130.72 0 0 42.01 -50.78 0 0 35.55 -43.89 0 0 43.52c-74.89,0 -79.7,0 -154.59,0l0 -366.19 -154.2 0 0 75.62 -47.43 0 0 38.37 -67.28 0 0 57.96 -44.41 0 -122.58 0 0 194.24 -68.57 0 0 -62.22 -104.43 -49.8 -94.06 51.58 0 60.45 -114.91 0 0 -217.37 -249.32 0 0 49.45 -60.57 0 0 49.71 -78.73 0 0 118.21 -90.1 0 0 -366.19 -138.1 0 0 252.75 -54.43 0 0 79.73 -66.21 0 0 -332.48 -166.08 0 0 325.96 -60.3 0 0 -304.23 -31.12 -60.34 5.16 0 -20.92 -96.33 -20.93 96.33 5.16 0 -31.12 60.34 0 344.45 -242.08 0 -68.97 -249.41 -155.68 0.68 -61.13 248.73 -9.4 0 0 -389.52 -18.47 49.58 -62.2 -0.25 -18.46 -49.33 0 286.66 -115.43 0 0 -96.3 -10.62 21.06 -40.12 0 -10.61 -21.06 0 121.13 -117.96 0 0 78.04 -200.93 0 0 -169.37 -418.01 0 0 100.73 -78 0 0 68.65 -57.77 0 0 -366.19 -85.25 -44.71 0 227.18 -61.43 0 0 183.71 -111.52 0 0 -305.5 -494.41 0 0 134.38 -145.59 0 0 117.71 -101.97 0 -71.96 -30.56 -75.25 33.45 -66.89 0 0 50.52 -78.08 0 0 -1680.7 19684.39 0z"/>
  <path class="fil0" d="M-0 853.8l0 1667.53 40.91 -20.76 0 -174.55 64.91 0 0 85.04 65.68 0 0 33.36 19.48 0 0 15.41 18.77 0 0 43.74 64.44 -32.73 64.44 32.73 108.41 0 0 -347.12 88.18 -88.51 88.18 89.06 0 377.52 113.53 0 0 -21.63 124.29 0 23.49 21.47 16.92 0.16 6.58 0 0 -136.88 0 -37.83 19.73 0 0 -20.62 19.8 0 14.96 -83.19 15.12 83.19 19.8 0 0 20.62 19.73 0 0 37.83 0 136.88 89.36 0 0 -261.94 348.33 0 0 111.96 101.96 0 0 86.3 247.03 63.68 0 -135.52 30.75 -118.3 11.32 0 11.17 -80.64 8.39 0 6.61 -120.11 10.44 119.81 6.81 0 12.76 80.53 10.23 0 29.14 117.11 0 30.32 94.04 0 0 -111.13 75.96 0 0 217.92 193.34 0 0 -52.16 6.44 0 108.22 0 54.08 52.16 53.24 0 0 -300.9 170.28 0 0 148.77 125.47 0 0 -148.05 170.28 0 0 300.18 84.99 0 0 -127.46 108.92 0 0 127.46 30.49 0 0 -59.91 81.72 0 0 59.91 51.17 0 0 -182.58 72.22 0 0 182.58 26.25 0 0 -49.28 19.6 0 0 -251.1 34.98 0 0 -62.43 32.03 0 0 -41.18 26.57 0 8.91 -111.19 7.04 110.62 22.95 0 0 40.85 34.47 0 0 63.53 35.29 0 0 36.65c75.79,-12.67 143.99,8.76 143.99,50.52l0 213 56.88 0 0 -43.91 46.67 0 0 -42.56 98.77 0 0 -47.76 113.2 0 0 87.33c30.98,-5.06 59.63,2.87 60.93,17.54l8.83 0 0 -183.43 131.92 0 0 154.42 98.97 0 0 58.36 77.85 0 0 -370.71c0,-27.59 22.36,-49.95 49.95,-49.95 27.59,0 49.95,22.36 49.95,49.95l0 249.62 130.72 0 0 42.01 50.78 0 0 35.55 43.89 0 0 43.52c74.89,0 79.7,0 154.59,0l0 -366.19 154.2 0 0 75.62 47.43 0 0 38.37 67.28 0 0 57.96 44.41 0 122.58 0 0 194.24 68.57 0 0 -62.22 104.43 -49.8 94.06 51.58 0 60.45 114.91 0 0 -217.37 249.32 0 0 49.45 60.57 0 0 49.71 78.73 0 0 118.21 90.1 0 0 -366.19 138.1 0 0 252.75 54.43 0 0 79.73 66.21 0 0 -332.48 166.08 0 0 325.96 60.3 0 0 -304.23 31.12 -60.34 -5.16 0 20.92 -96.33 20.93 96.33 -5.16 0 31.12 60.34 0 344.45 242.08 0 68.97 -249.41 155.68 0.68 61.13 248.73 9.4 0 0 -389.52 18.47 49.58 62.2 -0.25 18.46 -49.33 0 286.66 115.43 0 0 -96.3 10.62 21.06 40.12 0 10.61 -21.06 0 121.13 117.96 0 0 78.04 200.93 0 0 -169.37 418.01 0 0 100.73 78 0 0 68.65 57.77 0 0 -366.19 85.25 -44.71 0 227.18 61.43 0 0 183.71 111.52 0 0 -305.5 494.41 0 0 134.38 145.59 0 0 117.71 101.97 0 71.96 -30.56 75.25 33.45 66.89 0 0 50.52 78.08 0 0 -13.18 40.91 -20.76 0 -174.55 64.91 0 0 85.04 65.68 0 0 33.36 19.48 0 0 15.41 18.77 0 0 43.74 64.44 -32.73 64.44 32.73 108.41 0 0 -347.12 88.18 -88.51 88.18 89.06 0 377.52 113.53 0 0 -21.63 124.29 0 23.49 21.47 16.92 0.16 6.58 0 0 -136.88 0 -37.83 19.73 0 0 -20.62 19.8 0 14.96 -83.19 15.12 83.19 19.8 0 0 20.62 19.73 0 0 37.83 0 136.88 89.36 0 0 -261.94 348.33 0 0 111.96 101.96 0 0 86.3 247.03 63.68 0 -135.52 30.75 -118.3 11.32 0 11.17 -80.64 8.39 0 6.61 -120.11 10.44 119.81 6.81 0 12.76 80.53 10.23 0 29.14 117.11 0 30.32 94.04 0 0 -111.13 75.96 0 0 217.92 193.34 0 0 -52.16 6.44 0 108.22 0 54.08 52.16 53.24 0 0 -300.9 170.28 0 0 148.77 125.47 0 0 -148.05 170.28 0 0 300.18 84.99 0 0 -127.46 108.92 0 0 127.46 30.49 0 0 -59.91 81.72 0 0 59.91 51.17 0 0 -182.58 72.22 0 0 182.58 26.25 0 0 -49.28 19.6 0 0 -251.1 34.98 0 0 -62.43 32.03 0 0 -41.18 26.57 0 8.91 -111.19 7.04 110.62 22.95 0 0 40.85 34.47 0 0 63.53 35.29 0 0 36.65c75.79,-12.67 143.99,8.76 143.99,50.52l0 213 56.88 0 0 -43.91 46.67 0 0 -42.56 98.77 0 0 -47.76 113.2 0 0 87.33c30.98,-5.06 59.63,2.87 60.93,17.54l8.83 0 0 -183.43 131.92 0 0 154.42 98.97 0 0 58.36 77.85 0 0 -370.71c0,-27.59 22.36,-49.95 49.95,-49.95 27.59,0 49.95,22.36 49.95,49.95l0 249.62 130.72 0 0 42.01 50.78 0 0 35.55 43.89 0 0 43.52c74.89,0 79.7,0 154.59,0l0 -366.19 154.2 0 0 75.62 47.43 0 0 38.37 67.28 0 0 57.96 44.41 0 122.58 0 0 194.24 68.57 0 0 -62.22 104.43 -49.8 94.06 51.58 0 60.45 114.91 0 0 -217.37 249.32 0 0 49.45 60.57 0 0 49.71 78.73 0 0 118.21 90.1 0 0 -366.19 138.1 0 0 252.75 54.43 0 0 79.73 66.21 0 0 -332.48 166.08 0 0 325.96 60.3 0 0 -304.23 31.12 -60.34 -5.16 0 20.92 -96.33 20.93 96.33 -5.16 0 31.12 60.34 0 344.45 242.08 0 68.97 -249.41 155.68 0.68 61.13 248.73 9.4 0 0 -389.52 18.47 49.58 62.2 -0.25 18.46 -49.33 0 286.66 115.43 0 0 -96.3 10.62 21.06 40.12 0 10.61 -21.06 0 121.13 117.96 0 0 78.04 200.93 0 0 -169.37 418.01 0 0 100.73 78 0 0 68.65 57.77 0 0 -366.19 85.25 -44.71 0 227.18 61.43 0 0 183.71 111.52 0 0 -305.5 494.41 0 0 134.38 145.59 0 0 117.71 101.97 0 71.96 -30.56 75.25 33.45 66.89 0 0 50.52 78.08 0 0 -1680.7 -19684.39 0z"/>
  <path class="fil1" d="M19684.39 0l0 1667.53 -40.91 -20.76 0 -174.55 -64.91 0 0 85.04 -65.68 0 0 33.36 -19.48 0 0 15.41 -18.77 0 0 43.74 -64.44 -32.73 -64.44 32.73 -108.41 0 0 -347.12 -88.18 -88.51 -88.18 89.06 0 377.52 -113.53 0 0 -21.63 -124.29 0 -23.49 21.47 -16.92 0.16 -6.58 0 0 -136.88 0 -37.83 -19.73 0 0 -20.62 -19.8 0 -14.96 -83.19 -15.12 83.19 -19.8 0 0 20.62 -19.73 0 0 37.83 0 136.88 -89.36 0 0 -261.94 -348.33 0 0 111.96 -101.96 0 0 86.3 -247.03 63.68 0 -135.52 -30.75 -118.3 -11.32 0 -11.17 -80.64 -8.39 0 -6.61 -120.11 -10.44 119.81 -6.81 0 -12.76 80.53 -10.23 0 -29.14 117.11 0 30.32 -94.04 0 0 -111.13 -75.96 0 0 217.92 -193.34 0 0 -52.16 -6.44 0 -108.22 0 -54.08 52.16 -53.24 0 0 -300.9 -170.28 0 0 148.77 -125.47 0 0 -148.05 -170.28 0 0 300.18 -84.99 0 0 -127.46 -108.92 0 0 127.46 -30.49 0 0 -59.91 -81.72 0 0 59.91 -51.17 0 0 -182.58 -72.22 0 0 182.58 -26.25 0 0 -49.28 -19.6 0 0 -251.1 -34.98 0 0 -62.43 -32.03 0 0 -41.18 -26.57 0 -8.91 -111.19 -7.04 110.62 -22.95 0 0 40.85 -34.47 0 0 63.53 -35.29 0 0 36.65c-75.79,-12.67 -143.99,8.76 -143.99,50.52l0 213 -56.88 0 0 -43.91 -46.67 0 0 -42.56 -98.77 0 0 -47.76 -113.2 0 0 87.33c-30.98,-5.06 -59.63,2.87 -60.93,17.54l-8.83 0 0 -183.43 -131.92 0 0 154.42 -98.97 0 0 58.36 -77.85 0 0 -370.71c0,-27.59 -22.36,-49.95 -49.95,-49.95 -27.59,0 -49.95,22.36 -49.95,49.95l0 249.62 -130.72 0 0 42.01 -50.78 0 0 35.55 -43.89 0 0 43.52c-74.89,0 -79.7,0 -154.59,0l0 -366.19 -154.2 0 0 75.62 -47.43 0 0 38.37 -67.28 0 0 57.96 -44.41 0 -122.58 0 0 194.24 -68.57 0 0 -62.22 -104.43 -49.8 -94.06 51.58 0 60.45 -114.91 0 0 -217.37 -249.32 0 0 49.45 -60.57 0 0 49.71 -78.73 0 0 118.21 -90.1 0 0 -366.19 -138.1 0 0 252.75 -54.43 0 0 79.73 -66.21 0 0 -332.48 -166.08 0 0 325.96 -60.3 0 0 -304.23 -31.12 -60.34 5.16 0 -20.92 -96.33 -20.93 96.33 5.16 0 -31.12 60.34 0 344.45 -242.08 0 -68.97 -249.41 -155.68 0.68 -61.13 248.73 -9.4 0 0 -389.52 -18.47 49.58 -62.2 -0.25 -18.46 -49.33 0 286.66 -115.43 0 0 -96.3 -10.62 21.06 -40.12 0 -10.61 -21.06 0 121.13 -117.96 0 0 78.04 -200.93 0 0 -169.37 -418.01 0 0 100.73 -78 0 0 68.65 -57.77 0 0 -366.19 -85.25 -44.71 0 227.18 -61.43 0 0 183.71 -111.52 0 0 -305.5 -494.41 0 0 134.38 -145.59 0 0 117.71 -101.97 0 -71.96 -30.56 -75.25 33.45 -66.89 0 0 50.52 -78.08 0 0 -13.18 -40.91 -20.76 0 -174.55 -64.91 0 0 85.04 -65.68 0 0 33.36 -19.48 0 0 15.41 -18.77 0 0 43.74 -64.44 -32.73 -64.44 32.73 -108.41 0 0 -347.12 -88.18 -88.51 -88.18 89.06 0 377.52 -113.53 0 0 -21.63 -124.29 0 -23.49 21.47 -16.92 0.16 -6.58 0 0 -136.88 0 -37.83 -19.73 0 0 -20.62 -19.8 0 -14.96 -83.19 -15.12 83.19 -19.8 0 0 20.62 -19.73 0 0 37.83 0 136.88 -89.36 0 0 -261.94 -348.33 0 0 111.96 -101.96 0 0 86.3 -247.03 63.68 0 -135.52 -30.75 -118.3 -11.32 0 -11.17 -80.64 -8.39 0 -6.61 -120.11 -10.44 119.81 -6.81 0 -12.76 80.53 -10.23 0 -29.14 117.11 0 30.32 -94.04 0 0 -111.13 -75.96 0 0 217.92 -193.34 0 0 -52.16 -6.44 0 -108.22 0 -54.08 52.16 -53.24 0 0 -300.9 -170.28 0 0 148.77 -125.47 0 0 -148.05 -170.28 0 0 300.18 -84.99 0 0 -127.46 -108.92 0 0 127.46 -30.49 0 0 -59.91 -81.72 0 0 59.91 -51.17 0 0 -182.58 -72.22 0 0 182.58 -26.25 0 0 -49.28 -19.6 0 0 -251.1 -34.98 0 0 -62.43 -32.03 0 0 -41.18 -26.57 0 -8.91 -111.19 -7.04 110.62 -22.95 0 0 40.85 -34.47 0 0 63.53 -35.29 0 0 36.65c-75.79,-12.67 -143.99,8.76 -143.99,50.52l0 213 -56.88 0 0 -43.91 -46.67 0 0 -42.56 -98.77 0 0 -47.76 -113.2 0 0 87.33c-30.98,-5.06 -59.63,2.87 -60.93,17.54l-8.83 0 0 -183.43 -131.92 0 0 154.42 -98.97 0 0 58.36 -77.85 0 0 -370.71c0,-27.59 -22.36,-49.95 -49.95,-49.95 -27.59,0 -49.95,22.36 -49.95,49.95l0 249.62 -130.72 0 0 42.01 -50.78 0 0 35.55 -43.89 0 0 43.52c-74.89,0 -79.7,0 -154.59,0l0 -366.19 -154.2 0 0 75.62 -47.43 0 0 38.37 -67.28 0 0 57.96 -44.41 0 -122.58 0 0 194.24 -68.57 0 0 -62.22 -104.43 -49.8 -94.06 51.58 0 60.45 -114.91 0 0 -217.37 -249.32 0 0 49.45 -60.57 0 0 49.71 -78.73 0 0 118.21 -90.1 0 0 -366.19 -138.1 0 0 252.75 -54.43 0 0 79.73 -66.21 0 0 -332.48 -166.08 0 0 325.96 -60.3 0 0 -304.23 -31.12 -60.34 5.16 0 -20.92 -96.33 -20.93 96.33 5.16 0 -31.12 60.34 0 344.45 -242.08 0 -68.97 -249.41 -155.68 0.68 -61.13 248.73 -9.4 0 0 -389.52 -18.47 49.58 -62.2 -0.25 -18.46 -49.33 0 286.66 -115.43 0 0 -96.3 -10.62 21.06 -40.12 0 -10.61 -21.06 0 121.13 -117.96 0 0 78.04 -200.93 0 0 -169.37 -418.01 0 0 100.73 -78 0 0 68.65 -57.77 0 0 -366.19 -85.25 -44.71 0 227.18 -61.43 0 0 183.71 -111.52 0 0 -305.5 -494.41 0 0 134.38 -145.59 0 0 117.71 -101.97 0 -71.96 -30.56 -75.25 33.45 -66.89 0 0 50.52 -78.08 0 0 -1680.7 19684.39 0z"/>
 </g>
</svg>
