<?xml version="1.0" encoding="UTF-8"?>
<!DOCTYPE svg PUBLIC "-//W3C//DTD SVG 1.1//EN" "http://www.w3.org/Graphics/SVG/1.1/DTD/svg11.dtd">
<!-- Creator: CorelDRAW -->
<svg xmlns="http://www.w3.org/2000/svg" xml:space="preserve" width="5cm" height="6.89535cm" version="1.1" style="shape-rendering:geometricPrecision; text-rendering:geometricPrecision; image-rendering:optimizeQuality; fill-rule:evenodd; clip-rule:evenodd"
viewBox="0 0 21.77 30.03"
 xmlns:xlink="http://www.w3.org/1999/xlink"
 xmlns:xodm="http://www.corel.com/coreldraw/odm/2003">
 <defs>
  <style type="text/css">
   <![CDATA[
    .fil0 {fill:#004BA6;fill-rule:nonzero}
   ]]>
  </style>
 </defs>
 <g id="Layer_x0020_1">
  <metadata id="CorelCorpID_0Corel-Layer"/>
  <path class="fil0" d="M10.35 25.28l7.68 0 0 0.5 -7.68 0 0 -0.5zm5.9 -3.46l-2.29 2.84 -1.18 -1.23 0.36 -0.35 0.78 0.82 1.93 -2.4 0.39 0.31zm-11.95 -1.81l4.02 0c0.24,0 0.46,0.1 0.62,0.26l-0 0c0.16,0.16 0.26,0.38 0.26,0.62l0 4.02c0,0.24 -0.1,0.46 -0.26,0.62l-0 0c-0.16,0.16 -0.38,0.26 -0.62,0.26l-4.02 0c-0.24,0 -0.46,-0.1 -0.62,-0.26l-0 -0c-0.16,-0.16 -0.26,-0.38 -0.26,-0.62l0 -4.02c0,-0.24 0.1,-0.46 0.26,-0.62l-0 -0c0.16,-0.16 0.38,-0.26 0.62,-0.26zm4.02 0.5l-4.02 0c-0.1,0 -0.2,0.04 -0.27,0.11l-0 0c-0.07,0.07 -0.11,0.16 -0.11,0.27l0 4.02c0,0.1 0.04,0.2 0.11,0.27l0 0c0.07,0.07 0.16,0.11 0.27,0.11l4.02 0c0.1,0 0.2,-0.04 0.27,-0.11l0 -0c0.07,-0.07 0.11,-0.16 0.11,-0.27l0 -4.02c0,-0.1 -0.04,-0.2 -0.11,-0.27l-0 0c-0.07,-0.07 -0.16,-0.11 -0.27,-0.11zm7.29 -4.6l-1.07 1.07 1.07 1.07 -0.35 0.35 -1.07 -1.07 -1.07 1.07 -0.35 -0.35 1.07 -1.07 -1.07 -1.07 0.35 -0.35 1.07 1.07 1.07 -1.07 0.35 0.35zm-5.26 3.04l7.68 0 0 0.5 -7.68 0 0 -0.5zm-6.05 -5.27l4.02 0c0.24,0 0.46,0.1 0.62,0.26l-0 0c0.16,0.16 0.26,0.38 0.26,0.62l0 4.02c0,0.24 -0.1,0.46 -0.26,0.62l-0 0c-0.16,0.16 -0.38,0.26 -0.62,0.26l-4.02 0c-0.24,0 -0.46,-0.1 -0.62,-0.26l-0 -0c-0.16,-0.16 -0.26,-0.38 -0.26,-0.62l0 -4.02c0,-0.24 0.1,-0.46 0.26,-0.62l-0 -0c0.16,-0.16 0.38,-0.26 0.62,-0.26zm4.02 0.5l-4.02 0c-0.1,0 -0.2,0.04 -0.27,0.11l-0 0c-0.07,0.07 -0.11,0.16 -0.11,0.27l0 4.02c0,0.1 0.04,0.2 0.11,0.27l0 0c0.07,0.07 0.16,0.11 0.27,0.11l4.02 0c0.1,0 0.2,-0.04 0.27,-0.11l0 -0c0.07,-0.07 0.11,-0.16 0.11,-0.27l0 -4.02c0,-0.1 -0.04,-0.2 -0.11,-0.27l-0 0c-0.07,-0.07 -0.16,-0.11 -0.27,-0.11zm2.02 -1.56l7.68 0 0 0.5 -7.68 0 0 -0.5zm5.9 -3.46l-2.29 2.84 -1.18 -1.23 0.36 -0.35 0.78 0.82 1.93 -2.4 0.39 0.31zm-11.95 -1.81l4.02 0c0.24,0 0.46,0.1 0.62,0.26l-0 0c0.16,0.16 0.26,0.38 0.26,0.62l0 4.02c0,0.24 -0.1,0.46 -0.26,0.62l-0 0c-0.16,0.16 -0.38,0.26 -0.62,0.26l-4.02 0c-0.24,0 -0.46,-0.1 -0.62,-0.26l-0 -0c-0.16,-0.16 -0.26,-0.38 -0.26,-0.62l0 -4.02c0,-0.24 0.1,-0.46 0.26,-0.62l-0 -0c0.16,-0.16 0.38,-0.26 0.62,-0.26zm4.02 0.5l-4.02 0c-0.1,0 -0.2,0.04 -0.27,0.11l-0 0c-0.07,0.07 -0.11,0.16 -0.11,0.27l0 4.02c0,0.1 0.04,0.2 0.11,0.27l0 0c0.07,0.07 0.16,0.11 0.27,0.11l4.02 0c0.1,0 0.2,-0.04 0.27,-0.11l0 -0c0.07,-0.07 0.11,-0.16 0.11,-0.27l0 -4.02c0,-0.1 -0.04,-0.2 -0.11,-0.27l-0 0c-0.07,-0.07 -0.16,-0.11 -0.27,-0.11zm-1.28 -1.53l7.68 0c0.05,0 0.1,-0.02 0.13,-0.05 0.03,-0.03 0.05,-0.08 0.05,-0.13l0 -3.58c0,-0.05 -0.02,-0.09 -0.05,-0.13 -0.03,-0.03 -0.08,-0.05 -0.13,-0.05l-2.22 0 0 -0.25c0,-0.45 -0.18,-0.85 -0.47,-1.14 -0.29,-0.29 -0.7,-0.47 -1.14,-0.47 -0.45,0 -0.85,0.18 -1.14,0.47 -0.29,0.29 -0.47,0.7 -0.47,1.14l0 0.25 -2.22 0c-0.05,0 -0.1,0.02 -0.13,0.05 -0.03,0.03 -0.05,0.08 -0.05,0.13l0 3.58c0,0.05 0.02,0.1 0.05,0.13 0.03,0.03 0.08,0.05 0.13,0.05zm7.68 0.5l-7.68 0c-0.19,0 -0.36,-0.08 -0.48,-0.2 -0.12,-0.12 -0.2,-0.29 -0.2,-0.48l0 -1.02 -4.05 0c-0.1,0 -0.19,0.04 -0.26,0.11 -0.07,0.07 -0.11,0.16 -0.11,0.26l0 22.24c0,0.1 0.04,0.19 0.11,0.26 0.07,0.07 0.16,0.11 0.26,0.11l17.15 0c0.1,0 0.19,-0.04 0.26,-0.11 0.07,-0.07 0.11,-0.16 0.11,-0.26l0 -22.24c0,-0.1 -0.04,-0.19 -0.11,-0.26 -0.07,-0.07 -0.16,-0.11 -0.26,-0.11l-4.05 0 0 1.02c0,0.19 -0.08,0.36 -0.2,0.48 -0.12,0.12 -0.29,0.2 -0.48,0.2zm0.68 -4.26l0 0.41 5.2 0c0.32,0 0.61,0.13 0.82,0.34 0.21,0.21 0.34,0.5 0.34,0.82l0 24.74c0,0.32 -0.13,0.61 -0.34,0.82 -0.21,0.21 -0.5,0.34 -0.82,0.34l-19.44 0c-0.32,0 -0.61,-0.13 -0.82,-0.34 -0.21,-0.21 -0.34,-0.5 -0.34,-0.82l0 -24.74c0,-0.32 0.13,-0.61 0.34,-0.82 0.21,-0.21 0.5,-0.34 0.82,-0.34l5.2 0 0 -0.41c0,-0.19 0.08,-0.36 0.2,-0.48 0.12,-0.12 0.29,-0.2 0.48,-0.2l1.74 0c0.06,-0.48 0.28,-0.92 0.61,-1.25 0.38,-0.38 0.91,-0.62 1.5,-0.62 0.58,0 1.11,0.24 1.5,0.62 0.33,0.33 0.55,0.76 0.61,1.25l1.74 0c0.19,0 0.36,0.08 0.48,0.2 0.12,0.12 0.2,0.29 0.2,0.48zm0 0.91l0 1.14 4.05 0c0.24,0 0.45,0.1 0.61,0.25 0.16,0.16 0.25,0.37 0.25,0.61l0 22.24c0,0.24 -0.1,0.45 -0.25,0.61 -0.16,0.16 -0.37,0.25 -0.61,0.25l-17.15 0c-0.24,0 -0.45,-0.1 -0.61,-0.25 -0.16,-0.16 -0.25,-0.37 -0.25,-0.61l0 -22.24c0,-0.24 0.1,-0.45 0.25,-0.61 0.16,-0.16 0.37,-0.25 0.61,-0.25l4.05 0 0 -1.14 -5.2 0c-0.18,0 -0.35,0.08 -0.47,0.2 -0.12,0.12 -0.2,0.29 -0.2,0.47l0 24.74c0,0.18 0.08,0.35 0.2,0.47 0.12,0.12 0.29,0.2 0.47,0.2l19.44 0c0.18,0 0.35,-0.07 0.47,-0.2 0.12,-0.12 0.2,-0.29 0.2,-0.47l0 -24.74c0,-0.18 -0.07,-0.35 -0.2,-0.47 -0.12,-0.12 -0.29,-0.2 -0.47,-0.2l-5.2 0zm-9.64 14l0.56 0c0.11,0 0.18,-0 0.22,-0.01l0 -0c0.03,-0.01 0.07,-0.01 0.1,-0.02 0.03,-0.01 0.05,-0.02 0.07,-0.03 0.02,-0.01 0.04,-0.03 0.05,-0.05 0.02,-0.02 0.03,-0.04 0.05,-0.07 0.01,-0.03 0.02,-0.05 0.03,-0.08 0.01,-0.03 0.01,-0.06 0.01,-0.1 0,-0.04 -0.01,-0.08 -0.02,-0.11 -0.01,-0.03 -0.02,-0.06 -0.04,-0.09 -0.02,-0.03 -0.04,-0.05 -0.07,-0.07 -0.03,-0.02 -0.06,-0.04 -0.09,-0.05 -0.04,-0.01 -0.09,-0.02 -0.14,-0.03 -0.06,-0.01 -0.13,-0.01 -0.21,-0.01l-0.52 0 0 0.73zm0 -1.19l0.48 0c0.08,0 0.14,-0 0.19,-0.01 0.05,-0 0.09,-0.01 0.12,-0.02l0 0c0.04,-0.01 0.07,-0.02 0.09,-0.04 0.02,-0.02 0.04,-0.04 0.06,-0.06 0.02,-0.02 0.03,-0.05 0.04,-0.08 0.01,-0.03 0.01,-0.06 0.01,-0.1 0,-0.04 -0,-0.07 -0.01,-0.1 -0.01,-0.03 -0.02,-0.06 -0.04,-0.08l-0 -0c-0.02,-0.02 -0.03,-0.04 -0.06,-0.06 -0.02,-0.02 -0.05,-0.03 -0.08,-0.04 -0.03,-0.01 -0.08,-0.02 -0.14,-0.02 -0.06,-0.01 -0.14,-0.01 -0.23,-0.01l-0.44 0 0 0.62zm-0.5 1.57l0 -2.66 1.05 0c0.1,0 0.19,0.01 0.28,0.02 0.09,0.01 0.16,0.04 0.23,0.06 0.07,0.03 0.13,0.07 0.18,0.11 0.05,0.05 0.1,0.1 0.14,0.16 0.04,0.06 0.07,0.12 0.08,0.18 0.02,0.06 0.03,0.13 0.03,0.2 0,0.06 -0.01,0.12 -0.03,0.18 -0.02,0.06 -0.04,0.12 -0.08,0.17 -0.03,0.06 -0.08,0.11 -0.13,0.15 -0.01,0.01 -0.02,0.02 -0.03,0.03 0.03,0.01 0.05,0.03 0.07,0.04 0.07,0.04 0.13,0.1 0.17,0.16 0.05,0.06 0.08,0.13 0.11,0.2 0.02,0.07 0.04,0.15 0.04,0.23 0,0.07 -0.01,0.13 -0.02,0.19 -0.01,0.06 -0.04,0.12 -0.06,0.18 -0.03,0.06 -0.06,0.11 -0.09,0.15 -0.04,0.04 -0.07,0.08 -0.12,0.12l-0 0c-0.04,0.03 -0.09,0.06 -0.14,0.08 -0.05,0.02 -0.11,0.04 -0.17,0.06 -0.06,0.02 -0.13,0.03 -0.2,0.03 -0.07,0.01 -0.15,0.01 -0.24,0.01l-1.06 0 0 -0.08zm0.7 -7.47l0.65 0 -0.23 -0.61c-0.04,-0.11 -0.07,-0.2 -0.1,-0.28 -0.02,0.08 -0.05,0.16 -0.08,0.24l-0.24 0.65zm-0.93 1.11l1.01 -2.63 0.48 0 1.11 2.74 -0.56 0 -0.3 -0.78 -0.97 0 -0.28 0.78 -0.53 0 0.04 -0.11zm2.09 11.72l0.42 0.11 -0.02 0.08c-0.04,0.15 -0.09,0.28 -0.16,0.39 -0.07,0.11 -0.15,0.21 -0.25,0.29 -0.1,0.08 -0.21,0.14 -0.33,0.18 -0.12,0.04 -0.25,0.06 -0.4,0.06 -0.14,0 -0.28,-0.02 -0.4,-0.04 -0.12,-0.03 -0.23,-0.08 -0.32,-0.14 -0.09,-0.06 -0.18,-0.14 -0.25,-0.22 -0.07,-0.09 -0.13,-0.19 -0.18,-0.3 -0.05,-0.11 -0.08,-0.23 -0.11,-0.35 -0.02,-0.12 -0.04,-0.24 -0.04,-0.37 0,-0.14 0.01,-0.27 0.04,-0.39 0.03,-0.12 0.07,-0.24 0.12,-0.34 0.06,-0.11 0.12,-0.2 0.2,-0.28 0.08,-0.08 0.17,-0.15 0.27,-0.21 0.1,-0.06 0.21,-0.1 0.32,-0.12 0.11,-0.03 0.23,-0.04 0.35,-0.04 0.14,0 0.26,0.02 0.38,0.05 0.12,0.04 0.22,0.09 0.32,0.16 0.1,0.07 0.18,0.16 0.24,0.26 0.07,0.1 0.12,0.21 0.15,0.34l0.02 0.08 -0.49 0.12 -0.02 -0.07c-0.03,-0.09 -0.06,-0.16 -0.1,-0.22 -0.04,-0.06 -0.08,-0.11 -0.13,-0.15 -0.05,-0.04 -0.1,-0.06 -0.17,-0.08 -0.06,-0.02 -0.13,-0.03 -0.21,-0.03 -0.09,0 -0.18,0.01 -0.25,0.03 -0.07,0.02 -0.14,0.05 -0.2,0.09 -0.06,0.04 -0.11,0.09 -0.15,0.15 -0.04,0.06 -0.07,0.12 -0.1,0.19 -0.05,0.15 -0.08,0.31 -0.08,0.47 0,0.11 0.01,0.2 0.02,0.29 0.02,0.09 0.04,0.17 0.07,0.25 0.03,0.07 0.07,0.14 0.11,0.19 0.04,0.05 0.1,0.1 0.15,0.13 0.06,0.04 0.12,0.06 0.19,0.08 0.07,0.02 0.13,0.03 0.21,0.03 0.09,0 0.17,-0.01 0.24,-0.04 0.07,-0.02 0.14,-0.06 0.19,-0.11 0.06,-0.05 0.11,-0.11 0.15,-0.18 0.04,-0.07 0.07,-0.16 0.09,-0.26l0.02 -0.08 0.08 0.02z"/>
 </g>
</svg>
