<?xml version="1.0" encoding="UTF-8"?>
<!DOCTYPE svg PUBLIC "-//W3C//DTD SVG 1.1//EN" "http://www.w3.org/Graphics/SVG/1.1/DTD/svg11.dtd">
<!-- Creator: CorelDRAW -->
<svg xmlns="http://www.w3.org/2000/svg" xml:space="preserve" width="9.4031cm" height="2cm" version="1.1" style="shape-rendering:geometricPrecision; text-rendering:geometricPrecision; image-rendering:optimizeQuality; fill-rule:evenodd; clip-rule:evenodd"
viewBox="0 0 1105.48 235.13"
 xmlns:xlink="http://www.w3.org/1999/xlink"
 xmlns:xodm="http://www.corel.com/coreldraw/odm/2003">
 <defs>
  <style type="text/css">
   <![CDATA[
    .fil2 {fill:#6666FF}
    .fil1 {fill:red}
    .fil0 {fill:white;fill-rule:nonzero}
   ]]>
  </style>
 </defs>
 <g id="Layer_x0020_1">
  <metadata id="CorelCorpID_0Corel-Layer"/>
  <path class="fil0" d="M619.75 0l23.07 0c2.85,0 5.16,2.31 5.16,5.16l0 224.8c0,2.85 -2.31,5.16 -5.16,5.16l-23.07 0c-2.85,0 -5.16,-2.31 -5.16,-5.16l0 -224.8c0,-2.85 2.31,-5.16 5.16,-5.16zm77.77 28.27l0 -23.07c0,-2.85 2.31,-5.16 5.16,-5.16l97.54 0c0.2,-0.02 0.41,-0.04 0.62,-0.04 0.55,0 -0.08,0.01 1.2,0.03l0.87 0.02 0.34 -0.01 0 0.02 0.65 0.02c10.13,0.38 19.95,2.66 29.03,6.62 9.11,3.98 17.46,9.64 24.61,16.79 7.52,7.52 13.39,16.37 17.39,26.02 3.99,9.64 6.1,20.04 6.1,30.67 0,10.64 -2.1,21.03 -6.1,30.67 -4,9.66 -9.87,18.5 -17.39,26.03 -7.14,7.15 -15.5,12.81 -24.61,16.79 -9.07,3.96 -18.88,6.23 -29,6.62 -0.2,0.02 -0.41,0.04 -0.62,0.04l-0.03 0 0 -0.01 -1.2 0.02c-1.29,0.02 -0.75,0.03 -1.24,0.03l0 -0.02c-0.14,0 -0.29,-0.01 -0.43,-0.02l-64.64 0 0 69.64c0,2.85 -2.31,5.16 -5.16,5.16l-23.07 0c-2.85,0 -5.16,-2.31 -5.16,-5.16l0 -97.88c0,-2.85 2.31,-5.16 5.16,-5.16l91.23 0 0 0.01c0.19,0 0.38,0.01 0.57,0.03l1.52 0c6.26,0 12.33,-1.22 17.93,-3.54 5.58,-2.31 10.73,-5.74 15.15,-10.16 4.42,-4.42 7.85,-9.57 10.16,-15.15 2.32,-5.6 3.54,-11.67 3.54,-17.93 0,-6.26 -1.22,-12.33 -3.54,-17.93 -2.31,-5.58 -5.74,-10.73 -10.16,-15.15 -4.42,-4.42 -9.57,-7.85 -15.15,-10.16 -5.6,-2.32 -11.67,-3.54 -17.93,-3.54l-1.47 0c-0.2,0.02 -0.41,0.04 -0.62,0.04l-96.07 0c-2.85,0 -5.16,-2.31 -5.16,-5.16zm390.46 149.63l16.05 16.49c1.98,2.04 1.94,5.3 -0.1,7.28 -5.46,5.33 -11.4,10.11 -17.72,14.26 -6.32,4.15 -13.04,7.69 -20.08,10.55 -7.02,2.86 -14.29,5.02 -21.69,6.46 -7.44,1.45 -15.01,2.19 -22.59,2.19 -15.61,0 -30.86,-3.08 -44.98,-8.94 -14.14,-5.86 -27.11,-14.46 -38.15,-25.5 -11.04,-11.04 -19.64,-24.01 -25.5,-38.15 -5.85,-14.13 -8.94,-29.37 -8.94,-44.98 0,-15.61 3.08,-30.85 8.94,-44.98 5.86,-14.14 14.46,-27.11 25.5,-38.15 11.04,-11.04 24.01,-19.64 38.15,-25.5 14.13,-5.85 29.37,-8.94 44.98,-8.94 7.58,0 15.15,0.73 22.59,2.19 7.4,1.44 14.67,3.6 21.69,6.46 7.03,2.87 13.76,6.41 20.07,10.55 6.32,4.15 12.26,8.93 17.72,14.26 2.04,1.98 2.08,5.24 0.1,7.28l-16.05 16.49c-1.98,2.04 -5.24,2.08 -7.28,0.1 -3.88,-3.79 -8.14,-7.21 -12.71,-10.2 -4.54,-2.98 -9.36,-5.52 -14.39,-7.56 -5.04,-2.05 -10.23,-3.59 -15.5,-4.62 -5.31,-1.03 -10.75,-1.55 -16.25,-1.55 -11.23,0 -22.16,2.2 -32.24,6.38 -10.07,4.17 -19.34,10.34 -27.28,18.27 -7.94,7.94 -14.1,17.21 -18.27,27.28 -4.18,10.08 -6.38,21.01 -6.38,32.24 0,11.23 2.2,22.16 6.38,32.24 4.17,10.07 10.34,19.34 18.27,27.28 7.94,7.94 17.21,14.11 27.28,18.27 10.08,4.17 21.01,6.38 32.24,6.38 5.49,0 10.93,-0.52 16.25,-1.55 5.28,-1.03 10.47,-2.57 15.51,-4.62 5.03,-2.05 9.85,-4.59 14.39,-7.56 4.56,-2.99 8.82,-6.41 12.7,-10.2 2.04,-1.98 5.3,-1.94 7.28,0.1zm-525.52 -137.16l-15.79 16.23c-0.09,0.11 -0.19,0.22 -0.3,0.33 -2.02,2.02 -5.28,2.02 -7.3,0l0.01 -0.01c-3.87,-3.77 -8.11,-7.17 -12.66,-10.15 -4.54,-2.98 -9.36,-5.52 -14.39,-7.56 -5.04,-2.05 -10.23,-3.59 -15.51,-4.62 -5.31,-1.03 -10.75,-1.55 -16.25,-1.55 -11.23,0 -22.16,2.2 -32.24,6.38 -10.07,4.17 -19.34,10.34 -27.28,18.27 -7.94,7.94 -14.11,17.21 -18.27,27.28 -4.18,10.08 -6.38,21.01 -6.38,32.24 0,11.23 2.2,22.16 6.38,32.24 4.17,10.07 10.34,19.34 18.27,27.28 7.94,7.94 17.21,14.11 27.28,18.27 10.08,4.17 21.01,6.38 32.24,6.38 5.31,0 10.54,-0.47 15.61,-1.41 5.07,-0.94 10.05,-2.35 14.88,-4.22 3.77,-1.46 7.4,-3.18 10.86,-5.13 3.45,-1.95 6.8,-4.17 10.01,-6.64l0 -60.58c0,-2.85 2.31,-5.16 5.16,-5.16l23.07 0c2.85,0 5.16,2.31 5.16,5.16l0 73.26 -0.02 0c0,1.39 -0.56,2.78 -1.67,3.79l-3.79 3.46c-5.42,4.96 -11.23,9.37 -17.36,13.18 -6.12,3.81 -12.63,7.07 -19.43,9.71 -6.79,2.64 -13.78,4.63 -20.88,5.96 -7.16,1.34 -14.39,2.02 -21.62,2.02 -15.61,0 -30.86,-3.08 -44.98,-8.94 -14.14,-5.86 -27.11,-14.46 -38.15,-25.5 -11.04,-11.04 -19.64,-24.01 -25.5,-38.15 -5.85,-14.13 -8.94,-29.37 -8.94,-44.98 0,-15.61 3.08,-30.85 8.94,-44.98 5.86,-14.14 14.46,-27.11 25.5,-38.15 11.04,-11.04 24.01,-19.64 38.15,-25.5 14.13,-5.85 29.37,-8.94 44.98,-8.94 7.58,0 15.15,0.73 22.59,2.19 7.4,1.44 14.67,3.6 21.69,6.46 7.03,2.86 13.76,6.41 20.07,10.55 6.32,4.15 12.26,8.93 17.73,14.26 2.04,1.98 2.08,5.24 0.1,7.28z"/>
  <path class="fil1" d="M117.16 25.05l129.45 0 0 201.47c0,4.73 3.87,8.61 8.61,8.61l49.59 0c4.73,0 8.61,-3.87 8.61,-8.61l0 -217.92c0,-4.73 -3.87,-8.61 -8.61,-8.61 -62.55,0 -125.1,0 -187.65,0 -4.73,0 -8.61,3.87 -8.61,8.61l0 7.84c0,4.73 3.87,8.61 8.61,8.61z"/>
  <path class="fil2" d="M196.26 210.08l-129.46 0 0 -201.47c0,-4.73 -3.87,-8.61 -8.61,-8.61l-49.59 0c-4.73,0 -8.61,3.87 -8.61,8.61l0 217.92c0,4.73 3.87,8.61 8.61,8.61 62.55,0 125.1,0 187.65,0 4.73,0 8.6,-3.87 8.6,-8.61l0 -7.84c0,-4.73 -3.87,-8.61 -8.6,-8.61z"/>
 </g>
</svg>
