<?xml version="1.0" encoding="UTF-8"?>
<!DOCTYPE svg PUBLIC "-//W3C//DTD SVG 1.1//EN" "http://www.w3.org/Graphics/SVG/1.1/DTD/svg11.dtd">
<!-- Creator: CorelDRAW -->
<svg xmlns="http://www.w3.org/2000/svg" xml:space="preserve" width="3.58454in" height="2.68924in" version="1.1" style="shape-rendering:geometricPrecision; text-rendering:geometricPrecision; image-rendering:optimizeQuality; fill-rule:evenodd; clip-rule:evenodd"
viewBox="0 0 78.75 59.08"
 xmlns:xlink="http://www.w3.org/1999/xlink"
 xmlns:xodm="http://www.corel.com/coreldraw/odm/2003">
 <defs>
  <style type="text/css">
   <![CDATA[
    .fil1 {fill:#004BA6}
    .fil0 {fill:#9A0000}
   ]]>
  </style>
 </defs>
 <g id="Layer_x0020_1">
  <metadata id="CorelCorpID_0Corel-Layer"/>
  <path class="fil0" d="M29.44 6.29l32.53 0 0 50.62c0,1.19 0.97,2.16 2.16,2.16l12.46 0c1.19,0 2.16,-0.97 2.16,-2.16l0 -54.75c0,-1.19 -0.97,-2.16 -2.16,-2.16 -15.72,0 -31.43,0 -47.15,0 -1.19,0 -2.16,0.97 -2.16,2.16l0 1.97c0,1.19 0.97,2.16 2.16,2.16z"/>
  <path class="fil1" d="M49.31 52.78l-32.53 0 0 -50.62c0,-1.19 -0.97,-2.16 -2.16,-2.16l-12.46 0c-1.19,0 -2.16,0.97 -2.16,2.16l0 54.75c0,1.19 0.97,2.16 2.16,2.16 15.72,0 31.43,0 47.15,0 1.19,0 2.16,-0.97 2.16,-2.16l0 -1.97c0,-1.19 -0.97,-2.16 -2.16,-2.16z"/>
 </g>
</svg>
