<?xml version="1.0" encoding="UTF-8"?>
<!DOCTYPE svg PUBLIC "-//W3C//DTD SVG 1.1//EN" "http://www.w3.org/Graphics/SVG/1.1/DTD/svg11.dtd">
<!-- Creator: CorelDRAW -->
<svg xmlns="http://www.w3.org/2000/svg" xml:space="preserve" width="10cm" height="2.17054cm" version="1.1" style="shape-rendering:geometricPrecision; text-rendering:geometricPrecision; image-rendering:optimizeQuality; fill-rule:evenodd; clip-rule:evenodd"
viewBox="0 0 57.86 12.31"
 xmlns:xlink="http://www.w3.org/1999/xlink"
 xmlns:xodm="http://www.corel.com/coreldraw/odm/2003">
 <defs>
  <style type="text/css">
   <![CDATA[
    .fil2 {fill:#004BA6}
    .fil1 {fill:#9A0000}
    .fil0 {fill:url(#id0);fill-rule:nonzero}
   ]]>
  </style>
  <linearGradient id="id0" gradientUnits="userSpaceOnUse" x1="38.42" y1="12.31" x2="38.42" y2="0">
   <stop offset="0" style="stop-opacity:1; stop-color:gray"/>
   <stop offset="0.145098" style="stop-opacity:1; stop-color:#8C8C8C"/>
   <stop offset="0.490196" style="stop-opacity:1; stop-color:#999999"/>
   <stop offset="0.85098" style="stop-opacity:1; stop-color:#8D8D8D"/>
   <stop offset="1" style="stop-opacity:1; stop-color:gray"/>
  </linearGradient>
 </defs>
 <g id="Layer_x0020_1">
  <metadata id="CorelCorpID_0Corel-Layer"/>
  <g id="_1960064872384">
   <path class="fil0" d="M32.44 0l1.21 0c0.15,0 0.27,0.12 0.27,0.27l0 11.77c0,0.15 -0.12,0.27 -0.27,0.27l-1.21 0c-0.15,0 -0.27,-0.12 -0.27,-0.27l0 -11.77c0,-0.15 0.12,-0.27 0.27,-0.27zm4.07 1.48l0 -1.21c0,-0.15 0.12,-0.27 0.27,-0.27l5.1 0c0.01,-0 0.02,-0 0.03,-0 0.03,0 -0,0 0.06,0l0.05 0 0.02 -0 0 0 0.03 0c0.53,0.02 1.04,0.14 1.52,0.35 0.48,0.21 0.91,0.5 1.29,0.88 0.39,0.39 0.7,0.86 0.91,1.36 0.21,0.5 0.32,1.05 0.32,1.61 0,0.56 -0.11,1.1 -0.32,1.61 -0.21,0.51 -0.52,0.97 -0.91,1.36 -0.37,0.37 -0.81,0.67 -1.29,0.88 -0.47,0.21 -0.99,0.33 -1.52,0.35 -0.01,0 -0.02,0 -0.03,0l-0 0 0 -0 -0.06 0c-0.07,0 -0.04,0 -0.06,0l0 -0c-0.01,0 -0.02,0 -0.02,-0l-3.38 0 0 3.64c0,0.15 -0.12,0.27 -0.27,0.27l-1.21 0c-0.15,0 -0.27,-0.12 -0.27,-0.27l0 -5.12c0,-0.15 0.12,-0.27 0.27,-0.27l4.77 0 0 0c0.01,0 0.02,0 0.03,0l0.08 0c0.33,0 0.65,-0.06 0.94,-0.19 0.29,-0.12 0.56,-0.3 0.79,-0.53 0.23,-0.23 0.41,-0.5 0.53,-0.79 0.12,-0.29 0.18,-0.61 0.18,-0.94 0,-0.33 -0.06,-0.65 -0.18,-0.94 -0.12,-0.29 -0.3,-0.56 -0.53,-0.79 -0.23,-0.23 -0.5,-0.41 -0.79,-0.53 -0.29,-0.12 -0.61,-0.19 -0.94,-0.19l-0.08 0c-0.01,0 -0.02,0 -0.03,0l-5.03 0c-0.15,0 -0.27,-0.12 -0.27,-0.27zm20.44 7.83l0.84 0.86c0.1,0.11 0.1,0.28 -0.01,0.38 -0.29,0.28 -0.6,0.53 -0.93,0.75 -0.33,0.22 -0.68,0.4 -1.05,0.55 -0.37,0.15 -0.75,0.26 -1.14,0.34 -0.39,0.08 -0.79,0.11 -1.18,0.11 -0.82,0 -1.62,-0.16 -2.35,-0.47 -0.74,-0.31 -1.42,-0.76 -2,-1.33 -0.58,-0.58 -1.03,-1.26 -1.33,-2 -0.31,-0.74 -0.47,-1.54 -0.47,-2.35 0,-0.82 0.16,-1.62 0.47,-2.35 0.31,-0.74 0.76,-1.42 1.33,-2 0.58,-0.58 1.26,-1.03 2,-1.33 0.74,-0.31 1.54,-0.47 2.35,-0.47 0.4,0 0.79,0.04 1.18,0.11 0.39,0.08 0.77,0.19 1.13,0.34 0.37,0.15 0.72,0.33 1.05,0.55 0.33,0.22 0.64,0.47 0.93,0.75 0.11,0.1 0.11,0.27 0.01,0.38l-0.84 0.86c-0.1,0.11 -0.27,0.11 -0.38,0.01 -0.2,-0.2 -0.43,-0.38 -0.66,-0.53 -0.24,-0.16 -0.49,-0.29 -0.75,-0.4 -0.26,-0.11 -0.54,-0.19 -0.81,-0.24 -0.28,-0.05 -0.56,-0.08 -0.85,-0.08 -0.59,0 -1.16,0.12 -1.69,0.33 -0.53,0.22 -1.01,0.54 -1.43,0.96 -0.42,0.42 -0.74,0.9 -0.96,1.43 -0.22,0.53 -0.33,1.1 -0.33,1.69 0,0.59 0.12,1.16 0.33,1.69 0.22,0.53 0.54,1.01 0.96,1.43 0.42,0.42 0.9,0.74 1.43,0.96 0.53,0.22 1.1,0.33 1.69,0.33 0.29,0 0.57,-0.03 0.85,-0.08 0.28,-0.05 0.55,-0.13 0.81,-0.24 0.26,-0.11 0.52,-0.24 0.75,-0.4 0.24,-0.16 0.46,-0.34 0.66,-0.53 0.11,-0.1 0.28,-0.1 0.38,0.01zm-27.5 -7.18l-0.83 0.85c-0,0.01 -0.01,0.01 -0.02,0.02 -0.11,0.11 -0.28,0.11 -0.38,0l0 -0c-0.2,-0.2 -0.42,-0.38 -0.66,-0.53 -0.24,-0.16 -0.49,-0.29 -0.75,-0.4 -0.26,-0.11 -0.54,-0.19 -0.81,-0.24 -0.28,-0.05 -0.56,-0.08 -0.85,-0.08 -0.59,0 -1.16,0.12 -1.69,0.33 -0.53,0.22 -1.01,0.54 -1.43,0.96 -0.42,0.42 -0.74,0.9 -0.96,1.43 -0.22,0.53 -0.33,1.1 -0.33,1.69 0,0.59 0.12,1.16 0.33,1.69 0.22,0.53 0.54,1.01 0.96,1.43 0.42,0.42 0.9,0.74 1.43,0.96 0.53,0.22 1.1,0.33 1.69,0.33 0.28,0 0.55,-0.02 0.82,-0.07 0.27,-0.05 0.53,-0.12 0.78,-0.22 0.2,-0.08 0.39,-0.17 0.57,-0.27 0.18,-0.1 0.36,-0.22 0.52,-0.35l0 -3.17c0,-0.15 0.12,-0.27 0.27,-0.27l1.21 0c0.15,0 0.27,0.12 0.27,0.27l0 3.83 -0 0c0,0.07 -0.03,0.15 -0.09,0.2l-0.2 0.18c-0.28,0.26 -0.59,0.49 -0.91,0.69 -0.32,0.2 -0.66,0.37 -1.02,0.51 -0.36,0.14 -0.72,0.24 -1.09,0.31 -0.38,0.07 -0.75,0.11 -1.13,0.11 -0.82,0 -1.62,-0.16 -2.35,-0.47 -0.74,-0.31 -1.42,-0.76 -2,-1.33 -0.58,-0.58 -1.03,-1.26 -1.33,-2 -0.31,-0.74 -0.47,-1.54 -0.47,-2.35 0,-0.82 0.16,-1.62 0.47,-2.35 0.31,-0.74 0.76,-1.42 1.33,-2 0.58,-0.58 1.26,-1.03 2,-1.33 0.74,-0.31 1.54,-0.47 2.35,-0.47 0.4,0 0.79,0.04 1.18,0.11 0.39,0.08 0.77,0.19 1.14,0.34 0.37,0.15 0.72,0.33 1.05,0.55 0.33,0.22 0.64,0.47 0.93,0.75 0.11,0.1 0.11,0.27 0.01,0.38z"/>
   <path class="fil1" d="M6.13 1.31l6.78 0 0 10.54c0,0.25 0.2,0.45 0.45,0.45l2.59 0c0.25,0 0.45,-0.2 0.45,-0.45l0 -11.41c0,-0.25 -0.2,-0.45 -0.45,-0.45 -3.27,0 -6.55,0 -9.82,0 -0.25,0 -0.45,0.2 -0.45,0.45l0 0.41c0,0.25 0.2,0.45 0.45,0.45z"/>
   <path class="fil2" d="M10.27 10.99l-6.78 0 0 -10.54c0,-0.25 -0.2,-0.45 -0.45,-0.45l-2.6 0c-0.25,0 -0.45,0.2 -0.45,0.45l0 11.41c0,0.25 0.2,0.45 0.45,0.45 3.27,0 6.55,0 9.82,0 0.25,0 0.45,-0.2 0.45,-0.45l0 -0.41c0,-0.25 -0.2,-0.45 -0.45,-0.45z"/>
  </g>
 </g>
</svg>
