<?xml version="1.0" encoding="UTF-8"?>
<!DOCTYPE svg PUBLIC "-//W3C//DTD SVG 1.1//EN" "http://www.w3.org/Graphics/SVG/1.1/DTD/svg11.dtd">
<!-- Creator: CorelDRAW -->
<svg xmlns="http://www.w3.org/2000/svg" xml:space="preserve" width="7.20209cm" height="1.53183cm" version="1.1" style="shape-rendering:geometricPrecision; text-rendering:geometricPrecision; image-rendering:optimizeQuality; fill-rule:evenodd; clip-rule:evenodd"
viewBox="0 0 279.42 59.43"
 xmlns:xlink="http://www.w3.org/1999/xlink"
 xmlns:xodm="http://www.corel.com/coreldraw/odm/2003">
 <defs>
  <style type="text/css">
   <![CDATA[
    .fil2 {fill:#00CCFF}
    .fil1 {fill:#FF9999}
    .fil0 {fill:white;fill-rule:nonzero}
   ]]>
  </style>
 </defs>
 <g id="Layer_x0020_1">
  <metadata id="CorelCorpID_0Corel-Layer"/>
  <path class="fil0" d="M156.64 0l5.83 0c0.72,0 1.31,0.58 1.31,1.31l0 56.82c0,0.72 -0.58,1.31 -1.31,1.31l-5.83 0c-0.72,0 -1.31,-0.58 -1.31,-1.31l0 -56.82c0,-0.72 0.58,-1.31 1.31,-1.31zm19.66 7.15l0 -5.83c0,-0.72 0.58,-1.31 1.31,-1.31l24.65 0c0.05,-0.01 0.1,-0.01 0.16,-0.01 0.14,0 -0.02,0 0.3,0.01l0.22 0 0.09 -0 0 0 0.16 0.01c2.56,0.1 5.04,0.67 7.34,1.67 2.3,1.01 4.41,2.44 6.22,4.24 1.9,1.9 3.38,4.14 4.39,6.58 1.01,2.44 1.54,5.06 1.54,7.75 0,2.69 -0.53,5.32 -1.54,7.75 -1.01,2.44 -2.49,4.68 -4.39,6.58 -1.81,1.81 -3.92,3.24 -6.22,4.24 -2.29,1 -4.77,1.58 -7.33,1.67 -0.05,0.01 -0.1,0.01 -0.16,0.01l-0.01 0 0 -0 -0.3 0.01c-0.33,0 -0.19,0.01 -0.31,0.01l0 -0.01c-0.04,0 -0.07,-0 -0.11,-0l-16.34 0 0 17.6c0,0.72 -0.58,1.31 -1.31,1.31l-5.83 0c-0.72,0 -1.31,-0.58 -1.31,-1.31l0 -24.74c0,-0.72 0.58,-1.31 1.31,-1.31l23.06 0 0 0c0.05,0 0.1,0 0.14,0.01l0.38 0c1.58,0 3.12,-0.31 4.53,-0.89 1.41,-0.58 2.71,-1.45 3.83,-2.57 1.12,-1.12 1.98,-2.42 2.57,-3.83 0.59,-1.41 0.89,-2.95 0.89,-4.53 0,-1.58 -0.31,-3.12 -0.89,-4.53 -0.58,-1.41 -1.45,-2.71 -2.57,-3.83 -1.12,-1.12 -2.42,-1.98 -3.83,-2.57 -1.41,-0.59 -2.95,-0.89 -4.53,-0.89l-0.37 0c-0.05,0.01 -0.1,0.01 -0.16,0.01l-24.28 0c-0.72,0 -1.31,-0.58 -1.31,-1.31zm98.69 37.82l4.06 4.17c0.5,0.52 0.49,1.34 -0.03,1.84 -1.38,1.35 -2.88,2.55 -4.48,3.6 -1.6,1.05 -3.3,1.94 -5.07,2.67 -1.77,0.72 -3.61,1.27 -5.48,1.63 -1.88,0.37 -3.79,0.55 -5.71,0.55 -3.94,0 -7.8,-0.78 -11.37,-2.26 -3.57,-1.48 -6.85,-3.66 -9.64,-6.45 -2.79,-2.79 -4.97,-6.07 -6.45,-9.64 -1.48,-3.57 -2.26,-7.42 -2.26,-11.37 0,-3.94 0.78,-7.8 2.26,-11.37 1.48,-3.57 3.66,-6.85 6.45,-9.64 2.79,-2.79 6.07,-4.97 9.64,-6.45 3.57,-1.48 7.42,-2.26 11.37,-2.26 1.92,0 3.83,0.19 5.71,0.55 1.87,0.37 3.71,0.91 5.48,1.63 1.78,0.72 3.48,1.62 5.07,2.67 1.6,1.05 3.1,2.26 4.48,3.6 0.52,0.5 0.53,1.32 0.03,1.84l-4.06 4.17c-0.5,0.52 -1.33,0.53 -1.84,0.03 -0.98,-0.96 -2.06,-1.82 -3.21,-2.58 -1.15,-0.75 -2.37,-1.39 -3.64,-1.91 -1.27,-0.52 -2.59,-0.91 -3.92,-1.17 -1.34,-0.26 -2.72,-0.39 -4.11,-0.39 -2.84,0 -5.6,0.56 -8.15,1.61 -2.54,1.05 -4.89,2.61 -6.89,4.62 -2.01,2.01 -3.57,4.35 -4.62,6.89 -1.06,2.55 -1.61,5.31 -1.61,8.15 0,2.84 0.56,5.6 1.61,8.15 1.05,2.54 2.61,4.89 4.62,6.89 2.01,2.01 4.35,3.57 6.89,4.62 2.55,1.06 5.31,1.61 8.15,1.61 1.39,0 2.76,-0.13 4.11,-0.39 1.33,-0.26 2.65,-0.65 3.92,-1.17 1.27,-0.52 2.49,-1.16 3.64,-1.91 1.15,-0.76 2.23,-1.62 3.21,-2.58 0.52,-0.5 1.34,-0.49 1.84,0.03zm-132.83 -34.67l-3.99 4.1c-0.02,0.03 -0.05,0.06 -0.08,0.08 -0.51,0.51 -1.34,0.51 -1.85,0l0 -0c-0.98,-0.95 -2.05,-1.81 -3.2,-2.57 -1.15,-0.75 -2.37,-1.39 -3.64,-1.91 -1.27,-0.52 -2.59,-0.91 -3.92,-1.17 -1.34,-0.26 -2.72,-0.39 -4.11,-0.39 -2.84,0 -5.6,0.56 -8.15,1.61 -2.54,1.05 -4.89,2.61 -6.89,4.62 -2.01,2.01 -3.57,4.35 -4.62,6.89 -1.06,2.55 -1.61,5.31 -1.61,8.15 0,2.84 0.56,5.6 1.61,8.15 1.05,2.54 2.61,4.89 4.62,6.89 2.01,2.01 4.35,3.57 6.89,4.62 2.55,1.06 5.31,1.61 8.15,1.61 1.34,0 2.66,-0.12 3.95,-0.36 1.28,-0.24 2.54,-0.59 3.76,-1.07 0.95,-0.37 1.87,-0.8 2.75,-1.3 0.87,-0.49 1.72,-1.05 2.53,-1.68l0 -15.31c0,-0.72 0.58,-1.31 1.3,-1.31l5.83 0c0.72,0 1.3,0.58 1.3,1.31l0 18.52 -0.01 0c-0,0.35 -0.14,0.7 -0.42,0.96l-0.96 0.88c-1.37,1.25 -2.84,2.37 -4.39,3.33 -1.55,0.96 -3.19,1.79 -4.91,2.45 -1.72,0.67 -3.48,1.17 -5.28,1.51 -1.81,0.34 -3.64,0.51 -5.46,0.51 -3.94,0 -7.8,-0.78 -11.37,-2.26 -3.57,-1.48 -6.85,-3.66 -9.64,-6.45 -2.79,-2.79 -4.96,-6.07 -6.45,-9.64 -1.48,-3.57 -2.26,-7.42 -2.26,-11.37 0,-3.94 0.78,-7.8 2.26,-11.37 1.48,-3.57 3.66,-6.85 6.45,-9.64 2.79,-2.79 6.07,-4.97 9.64,-6.45 3.57,-1.48 7.42,-2.26 11.37,-2.26 1.92,0 3.83,0.19 5.71,0.55 1.87,0.37 3.71,0.91 5.48,1.63 1.78,0.72 3.48,1.62 5.07,2.67 1.6,1.05 3.1,2.26 4.48,3.6 0.51,0.5 0.53,1.32 0.03,1.84z"/>
  <path class="fil1" d="M29.61 6.33l32.72 0 0 50.92c0,1.2 0.98,2.17 2.17,2.17l12.53 0c1.2,0 2.18,-0.98 2.18,-2.17l0 -55.08c0,-1.2 -0.98,-2.17 -2.18,-2.17 -15.81,0 -31.62,0 -47.43,0 -1.2,0 -2.18,0.98 -2.18,2.17l0 1.98c0,1.2 0.98,2.17 2.18,2.17z"/>
  <path class="fil2" d="M49.6 53.1l-32.72 0 0 -50.92c0,-1.2 -0.98,-2.17 -2.18,-2.17l-12.53 0c-1.2,0 -2.17,0.98 -2.17,2.17l0 55.08c0,1.2 0.98,2.17 2.17,2.17 15.81,0 31.62,0 47.43,0 1.2,0 2.18,-0.98 2.18,-2.17l0 -1.98c0,-1.2 -0.98,-2.17 -2.18,-2.17z"/>
 </g>
</svg>
