<?xml version="1.0" encoding="UTF-8"?>
<!DOCTYPE svg PUBLIC "-//W3C//DTD SVG 1.1//EN" "http://www.w3.org/Graphics/SVG/1.1/DTD/svg11.dtd">
<!-- Creator: CorelDRAW -->
<svg xmlns="http://www.w3.org/2000/svg" xml:space="preserve" width="6cm" height="6.2145cm" version="1.1" style="shape-rendering:geometricPrecision; text-rendering:geometricPrecision; image-rendering:optimizeQuality; fill-rule:evenodd; clip-rule:evenodd"
viewBox="0 0 30.35 31.44"
 xmlns:xlink="http://www.w3.org/1999/xlink"
 xmlns:xodm="http://www.corel.com/coreldraw/odm/2003">
 <defs>
  <style type="text/css">
   <![CDATA[
    .fil0 {fill:#004BA6;fill-rule:nonzero}
   ]]>
  </style>
 </defs>
 <g id="Layer_x0020_1">
  <metadata id="CorelCorpID_0Corel-Layer"/>
  <path class="fil0" d="M-0 28.63l0 -16.93c0,-0.76 0.31,-1.45 0.8,-1.94 0.5,-0.5 1.18,-0.81 1.94,-0.81 0.24,0 0.48,0.03 0.71,0.09 0.23,0.06 0.45,0.15 0.66,0.27 0.09,0.05 0.15,0.15 0.15,0.25l0 0 0 2.38 12.91 0 0.07 -0.58c0,-0.04 0.02,-0.08 0.04,-0.11l5.89 -10.3 0.01 -0.02c0.26,-0.44 0.67,-0.74 1.14,-0.87 0.47,-0.13 0.98,-0.08 1.44,0.18l0 0 0 -0c0.45,0.26 0.76,0.68 0.89,1.15 0.13,0.47 0.08,0.99 -0.18,1.44l-5.21 9.12 1.26 0c0.16,0 0.29,0.13 0.29,0.29l0 18.84c0,0.16 -0.13,0.29 -0.29,0.29l-19.77 0c-0.76,0 -1.45,-0.31 -1.94,-0.81 -0.5,-0.5 -0.8,-1.18 -0.8,-1.94zm0.59 -16.93l0 15.24c0.07,-0.09 0.14,-0.17 0.22,-0.25 0.5,-0.5 1.18,-0.81 1.94,-0.81 0.24,0 0.48,0.03 0.71,0.09 0.07,0.02 0.15,0.04 0.22,0.07l0 -16.3c-0.12,-0.06 -0.24,-0.1 -0.37,-0.14 -0.18,-0.05 -0.36,-0.07 -0.56,-0.07 -0.6,0 -1.14,0.24 -1.53,0.63 -0.39,0.39 -0.63,0.93 -0.63,1.53zm3.68 0.84l0 13.96c0,0.16 -0.13,0.29 -0.29,0.29 -0.06,0 -0.12,-0.02 -0.17,-0.05 -0.15,-0.09 -0.32,-0.15 -0.5,-0.2 -0.18,-0.05 -0.36,-0.07 -0.56,-0.07 -0.6,0 -1.14,0.24 -1.53,0.63 -0.39,0.39 -0.63,0.93 -0.63,1.53 0,0.6 0.24,1.14 0.63,1.53 0.39,0.39 0.93,0.63 1.53,0.63l19.48 0 0 -18.25 -1.31 0 -0.34 0.6c-0.02,0.04 -0.06,0.07 -0.09,0.1l-3.26 2.51c-0.06,0.05 -0.14,0.08 -0.23,0.07 -0.16,-0.02 -0.28,-0.17 -0.26,-0.33l0.36 -2.95 -12.84 0zm13.46 -0.27l-0.17 1.41 0.8 0.46 1.44 -1.11 -2.02 -1.15 -0.05 0.4zm2.76 -0.16c0,-0.01 0.01,-0.02 0.01,-0.02l4.39 -7.68 -0.88 -0.5 -4.68 8.19 0.88 0.5 0.27 -0.48zm-14.37 14.18l1.32 0 0 -5.9 -1.68 0c-0.16,0 -0.29,-0.13 -0.29,-0.29 0,-0.01 0,-0.02 0,-0.03l0.01 -0.7c0,-0.11 0.06,-0.2 0.15,-0.25l7.36 -4.03c0.09,-0.05 0.2,-0.05 0.28,0l7.35 4.03c0.1,0.05 0.15,0.15 0.15,0.26l0.01 0.72c0,0.16 -0.13,0.29 -0.29,0.3l-0 0 0 0 -1.68 0 0 5.9 1.43 0c0.16,0 0.29,0.13 0.29,0.29l0 1.51c0,0.16 -0.13,0.29 -0.29,0.29l-14.11 0c-0.16,0 -0.29,-0.13 -0.29,-0.29l0 -1.51c0,-0.16 0.13,-0.29 0.29,-0.29zm1.61 0.59l-1.32 0 0 0.92 13.53 0 0 -0.92 -12.21 0zm0.29 -6.78l0 6.19 0.89 0 0 -4.06 -0.12 0c-0.16,0 -0.29,-0.13 -0.29,-0.29 0,-0.16 0.13,-0.29 0.29,-0.29l3.5 0c0.16,0 0.29,0.13 0.29,0.29 0,0.16 -0.13,0.29 -0.29,0.29l-0.12 0 0 4.06 6.05 0 0 -6.19c0,-0.16 0.13,-0.29 0.29,-0.29l1.68 0 -0 -0.26 -7.07 -3.87 -7.07 3.87 -0 0.26 1.68 0c0.16,0 0.29,0.13 0.29,0.29zm1.48 6.19l2.07 0 0 -4.06 -2.07 0 0 4.06zm3.62 -7.04c-0.35,0 -0.66,-0.14 -0.89,-0.37l-0 -0 -0 0c-0.23,-0.23 -0.37,-0.54 -0.37,-0.89 0,-0.35 0.14,-0.66 0.37,-0.89l0 -0c0.23,-0.23 0.54,-0.37 0.89,-0.37 0.35,0 0.66,0.14 0.89,0.37l0.02 0.02c0.22,0.23 0.35,0.53 0.35,0.87 0,0.35 -0.14,0.66 -0.37,0.89 -0.23,0.23 -0.54,0.37 -0.89,0.37zm-0.47 -0.78c0.12,0.12 0.29,0.19 0.47,0.19 0.18,0 0.35,-0.07 0.47,-0.19 0.12,-0.12 0.19,-0.29 0.19,-0.47 0,-0.18 -0.07,-0.34 -0.18,-0.46l-0.01 -0.01c-0.12,-0.12 -0.29,-0.19 -0.47,-0.19 -0.18,0 -0.35,0.07 -0.47,0.19 -0.12,0.12 -0.19,0.29 -0.19,0.47 0,0.18 0.07,0.35 0.19,0.47l-0 0zm1.12 1.2l3.31 0c0.16,0 0.29,0.13 0.29,0.29l0 1.66c0,0.16 -0.13,0.29 -0.29,0.29l-3.31 0c-0.16,0 -0.29,-0.13 -0.29,-0.29l0 -1.66c0,-0.16 0.13,-0.29 0.29,-0.29zm1.36 0.59l-1.07 0 0 1.07 1.07 0 0 -1.07zm0.59 0l0 1.07 1.07 0 0 -1.07 -1.07 0zm14.06 -15.03l-3.65 0 0 0.79 0.73 0c0.16,0 0.29,0.13 0.29,0.29 0,0.16 -0.13,0.29 -0.29,0.29l-0.73 0 0 0.79 0.73 0c0.16,0 0.29,0.13 0.29,0.29 0,0.16 -0.13,0.29 -0.29,0.29l-0.73 0 0 0.79 0.73 0c0.16,0 0.29,0.13 0.29,0.29 0,0.16 -0.13,0.29 -0.29,0.29l-0.73 0 0 0.79 0.73 0c0.16,0 0.29,0.13 0.29,0.29 0,0.16 -0.13,0.29 -0.29,0.29l-0.73 0 0 0.79 1.77 0c0.16,0 0.29,0.13 0.29,0.29 0,0.16 -0.13,0.29 -0.29,0.29l-1.77 0 0 0.79 0.73 0c0.16,0 0.29,0.13 0.29,0.29 0,0.16 -0.13,0.29 -0.29,0.29l-0.73 0 0 0.79 0.73 0c0.16,0 0.29,0.13 0.29,0.29 0,0.16 -0.13,0.29 -0.29,0.29l-0.73 0 0 0.79 0.73 0c0.16,0 0.29,0.13 0.29,0.29 0,0.16 -0.13,0.29 -0.29,0.29l-0.73 0 0 0.79 0.73 0c0.16,0 0.29,0.13 0.29,0.29 0,0.16 -0.13,0.29 -0.29,0.29l-0.73 0 0 0.79 1.77 0c0.16,0 0.29,0.13 0.29,0.29 0,0.16 -0.13,0.29 -0.29,0.29l-1.77 0 0 0.79 0.73 0c0.16,0 0.29,0.13 0.29,0.29 0,0.16 -0.13,0.29 -0.29,0.29l-0.73 0 0 0.79 0.73 0c0.16,0 0.29,0.13 0.29,0.29 0,0.16 -0.13,0.29 -0.29,0.29l-0.73 0 0 0.79 0.73 0c0.16,0 0.29,0.13 0.29,0.29 0,0.16 -0.13,0.29 -0.29,0.29l-0.73 0 0 0.79 0.73 0c0.16,0 0.29,0.13 0.29,0.29 0,0.16 -0.13,0.29 -0.29,0.29l-0.73 0 0 0.79 1.77 0c0.16,0 0.29,0.13 0.29,0.29 0,0.16 -0.13,0.29 -0.29,0.29l-1.77 0 0 0.79 0.73 0c0.16,0 0.29,0.13 0.29,0.29 0,0.16 -0.13,0.29 -0.29,0.29l-0.73 0 0 0.79 0.73 0c0.16,0 0.29,0.13 0.29,0.29 0,0.16 -0.13,0.29 -0.29,0.29l-0.73 0 0 0.79 0.73 0c0.16,0 0.29,0.13 0.29,0.29 0,0.16 -0.13,0.29 -0.29,0.29l-0.73 0 0 0.79 3.65 0 0 -25.63zm-3.94 -0.59l4.24 0c0.16,0 0.29,0.13 0.29,0.29l0 26.22c0,0.16 -0.13,0.29 -0.29,0.29l-4.24 0c-0.16,0 -0.29,-0.13 -0.29,-0.29l0 -26.22c0,-0.16 0.13,-0.29 0.29,-0.29zm-7.88 6.66l0.88 0.5 4.68 -8.19 -0.88 -0.5 -4.68 8.19zm4.97 -8.7l2.27 1.3 0.35 -0.61 -2.27 -1.3 -0.35 0.61zm3.17 -1.05c-0.09,-0.32 -0.3,-0.61 -0.6,-0.79 -0.01,-0 -0.02,-0.01 -0.03,-0.02 -0.31,-0.17 -0.66,-0.2 -0.98,-0.12 -0.32,0.09 -0.6,0.29 -0.78,0.6 -0,0.01 -0.01,0.02 -0.02,0.03l-0.12 0.22 2.27 1.3 0.13 -0.23c0.18,-0.31 0.22,-0.67 0.13,-0.99zm-8.6 12.76l-0.07 0.55 0.44 -0.34 -0.37 -0.21z"/>
 </g>
</svg>
