<?xml version="1.0" encoding="UTF-8"?>
<!DOCTYPE svg PUBLIC "-//W3C//DTD SVG 1.1//EN" "http://www.w3.org/Graphics/SVG/1.1/DTD/svg11.dtd">
<!-- Creator: CorelDRAW -->
<svg xmlns="http://www.w3.org/2000/svg" xml:space="preserve" width="3.93701in" height="3.93701in" version="1.1" style="shape-rendering:geometricPrecision; text-rendering:geometricPrecision; image-rendering:optimizeQuality; fill-rule:evenodd; clip-rule:evenodd"
viewBox="0 0 96.34 96.34"
 xmlns:xlink="http://www.w3.org/1999/xlink"
 xmlns:xodm="http://www.corel.com/coreldraw/odm/2003">
 <defs>
  <style type="text/css">
   <![CDATA[
    .fil0 {fill:#004BA6}
   ]]>
  </style>
 </defs>
 <g id="Layer_x0020_1">
  <metadata id="CorelCorpID_0Corel-Layer"/>
  <path class="fil0" d="M48.17 96.34c-26.6,0 -48.17,-21.57 -48.17,-48.17 0,-26.6 21.57,-48.17 48.17,-48.17 26.6,0 48.17,21.57 48.17,48.17 0,26.6 -21.57,48.17 -48.17,48.17zm24.16 -33.89l0 -27.67 -22.66 18.1c-0.91,0.72 -2.18,0.68 -3.04,-0.03l-22.61 -18.06 0 27.67c0,0.39 0.16,0.74 0.42,0.99 0.26,0.26 0.61,0.42 0.99,0.42l45.5 0c0.39,0 0.74,-0.16 0.99,-0.42 0.26,-0.26 0.42,-0.61 0.42,-0.99zm-4.78 -30.04l-38.77 0 19.39 15.49 19.39 -15.49zm-42.13 -4.84c15.12,0 30.54,-0.29 45.63,0 1.67,0.03 3.18,0.73 4.28,1.83 1.13,1.13 1.83,2.7 1.83,4.42l0 28.63c0,1.72 -0.7,3.28 -1.83,4.42 -1.13,1.13 -2.7,1.83 -4.42,1.83l-45.5 0c-1.72,0 -3.28,-0.7 -4.42,-1.83 -1.13,-1.13 -1.83,-2.7 -1.83,-4.42l0 -28.63c0,-1.72 0.7,-3.28 1.83,-4.42 1.1,-1.1 2.61,-1.8 4.28,-1.83l0.14 -0z"/>
 </g>
</svg>
