<?xml version="1.0" encoding="UTF-8"?>
<!DOCTYPE svg PUBLIC "-//W3C//DTD SVG 1.1//EN" "http://www.w3.org/Graphics/SVG/1.1/DTD/svg11.dtd">
<!-- Creator: CorelDRAW -->
<svg xmlns="http://www.w3.org/2000/svg" xml:space="preserve" width="67.0694cm" height="5.27654cm" version="1.1" style="shape-rendering:geometricPrecision; text-rendering:geometricPrecision; image-rendering:optimizeQuality; fill-rule:evenodd; clip-rule:evenodd"
viewBox="0 0 17351.59 1365.1"
 xmlns:xlink="http://www.w3.org/1999/xlink"
 xmlns:xodm="http://www.corel.com/coreldraw/odm/2003">
 <defs>
  <style type="text/css">
   <![CDATA[
    .fil0 {fill:white}
   ]]>
  </style>
 </defs>
 <g id="Layer_x0020_1">
  <metadata id="CorelCorpID_0Corel-Layer"/>
  <path class="fil0" d="M-0 0l0 1353.48 36.06 -18.3 0 -153.87 57.22 0 0 74.96 57.9 0 0 29.4 17.18 0 0 13.58 16.55 0 0 38.55 56.81 -28.85 56.81 28.85 95.57 0 0 -305.98 77.73 -78.02 77.73 78.51 0 332.78 100.07 0 0 -19.06 109.56 0 20.7 18.92 14.91 0.14 5.8 0 0 -120.66 0 -33.35 17.39 0 0 -18.18 17.46 0 13.19 -73.33 13.33 73.33 17.46 0 0 18.18 17.39 0 0 33.35 0 120.66 78.77 0 0 -230.9 307.05 0 0 98.69 89.87 0 0 76.07 217.75 56.14 0 -119.46 27.11 -104.28 9.98 0 9.85 -71.09 7.39 0 5.83 -105.87 9.2 105.61 6 0 11.25 70.99 9.02 0 25.69 103.23 0 26.73 82.9 0 0 -97.96 66.96 0 0 192.09 170.43 0 0 -45.98 5.67 0 95.4 0 47.67 45.98 46.93 0 0 -265.24 150.1 0 0 131.14 110.6 0 0 -130.5 150.1 0 0 264.6 74.92 0 0 -112.35 96.02 0 0 112.35 26.88 0 0 -52.81 72.04 0 0 52.81 45.11 0 0 -160.94 63.66 0 0 160.94 23.14 0 0 -43.44 17.28 0 0 -221.34 30.83 0 0 -55.03 28.24 0 0 -36.3 23.42 0 7.85 -98.01 6.21 97.51 20.23 0 0 36.01 30.38 0 0 56 31.11 0 0 32.31c66.81,-11.17 126.93,7.73 126.93,44.53l0 187.76 50.14 0 0 -38.71 41.14 0 0 -37.52 87.06 0 0 -42.1 99.78 0 0 76.98c27.31,-4.46 52.57,2.53 53.71,15.46l7.78 0 0 -161.69 116.29 0 0 136.12 87.24 0 0 51.44 68.63 0 0 -326.78c0,-24.32 19.71,-44.03 44.03,-44.03 24.32,0 44.03,19.71 44.03,44.03l0 220.04 115.23 0 0 37.03 44.76 0 0 31.34 38.69 0 0 38.36c66.02,0 70.26,0 136.27,0l0 -322.79 135.92 0 0 66.66 41.81 0 0 33.82 59.31 0 0 51.1 39.15 0 108.06 0 0 171.22 60.44 0 0 -54.85 92.06 -43.9 82.92 45.46 0 53.28 101.29 0 0 -191.61 219.77 0 0 43.59 53.39 0 0 43.82 69.4 0 0 104.2 79.42 0 0 -322.79 121.73 0 0 222.8 47.98 0 0 70.28 58.36 0 0 -293.08 146.4 0 0 287.33 53.16 0 0 -268.17 27.44 -53.19 -4.55 0 18.44 -84.91 18.45 84.91 -4.55 0 27.44 53.19 0 303.63 213.39 0 60.8 -219.85 137.23 0.6 53.89 219.25 8.28 0 0 -343.36 16.28 43.7 54.83 -0.22 16.28 -43.48 0 252.69 101.75 0 0 -84.89 9.36 18.57 35.37 0 9.35 -18.57 0 106.78 103.98 0 0 68.79 177.12 0 0 -149.3 368.47 0 0 88.79 68.76 0 0 60.51 50.92 0 0 -322.79 75.15 -39.41 0 200.26 54.15 0 0 161.94 98.3 0 0 -269.3 435.82 0 0 118.46 128.34 0 0 103.76 89.89 0 63.43 -26.94 66.34 29.49 58.96 0 0 44.53 68.82 0 0 -11.62 36.06 -18.3 0 -153.87 57.22 0 0 74.96 57.9 0 0 29.4 17.18 0 0 13.58 16.55 0 0 38.55 56.81 -28.85 56.81 28.85 95.57 0 0 -305.98 77.73 -78.02 77.73 78.51 0 332.78 100.07 0 0 -19.06 109.56 0 20.7 18.92 14.91 0.14 5.8 0 0 -120.66 0 -33.35 17.39 0 0 -18.18 17.46 0 13.19 -73.33 13.33 73.33 17.46 0 0 18.18 17.39 0 0 33.35 0 120.66 78.77 0 0 -230.9 307.05 0 0 98.69 89.87 0 0 76.07 217.75 56.14 0 -119.46 27.11 -104.28 9.98 0 9.85 -71.09 7.39 0 5.83 -105.87 9.2 105.61 6 0 11.25 70.99 9.02 0 25.69 103.23 0 26.73 82.9 0 0 -97.96 66.96 0 0 192.09 170.43 0 0 -45.98 5.67 0 95.4 0 47.67 45.98 46.93 0 0 -265.24 150.1 0 0 131.14 110.6 0 0 -130.5 150.1 0 0 264.6 74.92 0 0 -112.35 96.02 0 0 112.35 26.88 0 0 -52.81 72.04 0 0 52.81 45.11 0 0 -160.94 63.66 0 0 160.94 23.14 0 0 -43.44 17.28 0 0 -221.34 30.83 0 0 -55.03 28.24 0 0 -36.3 23.42 0 7.85 -98.01 6.21 97.51 20.23 0 0 36.01 30.38 0 0 56 31.11 0 0 32.31c66.81,-11.17 126.93,7.73 126.93,44.53l0 187.76 50.14 0 0 -38.71 41.14 0 0 -37.52 87.06 0 0 -42.1 99.78 0 0 76.98c27.31,-4.46 52.57,2.53 53.71,15.46l7.78 0 0 -161.69 116.29 0 0 136.12 87.24 0 0 51.44 68.63 0 0 -326.78c0,-24.32 19.71,-44.03 44.03,-44.03 24.32,0 44.03,19.71 44.03,44.03l0 220.04 115.23 0 0 37.03 44.76 0 0 31.34 38.69 0 0 38.36c66.02,0 70.26,0 136.27,0l0 -322.79 135.92 0 0 66.66 41.81 0 0 33.82 59.31 0 0 51.1 39.15 0 108.06 0 0 171.22 60.44 0 0 -54.85 92.06 -43.9 82.92 45.46 0 53.28 101.29 0 0 -191.61 219.77 0 0 43.59 53.39 0 0 43.82 69.4 0 0 104.2 79.42 0 0 -322.79 121.73 0 0 222.8 47.98 0 0 70.28 58.36 0 0 -293.08 146.4 0 0 287.33 53.16 0 0 -268.17 27.44 -53.19 -4.55 0 18.44 -84.91 18.45 84.91 -4.55 0 27.44 53.19 0 303.63 213.39 0 60.8 -219.85 137.23 0.6 53.89 219.25 8.28 0 0 -343.36 16.28 43.7 54.83 -0.22 16.28 -43.48 0 252.69 101.75 0 0 -84.89 9.36 18.57 35.37 0 9.35 -18.57 0 106.78 103.98 0 0 68.79 177.12 0 0 -149.3 368.47 0 0 88.79 68.76 0 0 60.51 50.92 0 0 -322.79 75.15 -39.41 0 200.26 54.15 0 0 161.94 98.3 0 0 -269.3 435.82 0 0 118.46 128.34 0 0 103.76 89.89 0 63.43 -26.94 66.34 29.49 58.96 0 0 44.53 68.82 0 0 -1365.1 -17351.59 0z"/>
 </g>
</svg>
