<?xml version="1.0" encoding="UTF-8"?>
<!DOCTYPE svg PUBLIC "-//W3C//DTD SVG 1.1//EN" "http://www.w3.org/Graphics/SVG/1.1/DTD/svg11.dtd">
<!-- Creator: CorelDRAW -->
<svg xmlns="http://www.w3.org/2000/svg" xml:space="preserve" width="3.93701in" height="3.93701in" version="1.1" style="shape-rendering:geometricPrecision; text-rendering:geometricPrecision; image-rendering:optimizeQuality; fill-rule:evenodd; clip-rule:evenodd"
viewBox="0 0 101.51 101.51"
 xmlns:xlink="http://www.w3.org/1999/xlink"
 xmlns:xodm="http://www.corel.com/coreldraw/odm/2003">
 <defs>
  <style type="text/css">
   <![CDATA[
    .fil0 {fill:#004BA6}
   ]]>
  </style>
 </defs>
 <g id="Layer_x0020_1">
  <metadata id="CorelCorpID_0Corel-Layer"/>
  <path class="fil0" d="M50.76 101.51c-28.03,0 -50.76,-22.72 -50.76,-50.76 0,-28.03 22.72,-50.76 50.76,-50.76 28.03,0 50.76,22.72 50.76,50.76 0,28.03 -22.72,50.76 -50.76,50.76zm-21.48 -57.81c0,-11.86 9.62,-21.48 21.48,-21.48 11.86,0 21.48,9.62 21.48,21.48 0,7.11 -3.61,12.55 -7.51,18.21 -3.81,5.52 -8.85,11.88 -13.96,17.33 -5.11,-5.46 -10.15,-11.81 -13.96,-17.33 -3.91,-5.66 -7.51,-11.1 -7.51,-18.21zm21.48 8.33c-4.6,0 -8.33,-3.73 -8.33,-8.33 0,-4.6 3.73,-8.33 8.33,-8.33 4.6,0 8.33,3.73 8.33,8.33 0,4.6 -3.73,8.33 -8.33,8.33z"/>
 </g>
</svg>
