<?xml version="1.0" encoding="UTF-8"?>
<!DOCTYPE svg PUBLIC "-//W3C//DTD SVG 1.1//EN" "http://www.w3.org/Graphics/SVG/1.1/DTD/svg11.dtd">
<!-- Creator: CorelDRAW -->
<svg xmlns="http://www.w3.org/2000/svg" xml:space="preserve" width="12.6436in" height="2.68924in" version="1.1" style="shape-rendering:geometricPrecision; text-rendering:geometricPrecision; image-rendering:optimizeQuality; fill-rule:evenodd; clip-rule:evenodd"
viewBox="0 0 964.57 205.16"
 xmlns:xlink="http://www.w3.org/1999/xlink"
 xmlns:xodm="http://www.corel.com/coreldraw/odm/2003">
 <defs>
  <style type="text/css">
   <![CDATA[
    .fil2 {fill:#004BA6}
    .fil1 {fill:#9A0000}
    .fil0 {fill:url(#id0);fill-rule:nonzero}
   ]]>
  </style>
  <linearGradient id="id0" gradientUnits="userSpaceOnUse" x1="640.53" y1="205.16" x2="640.53" y2="0">
   <stop offset="0" style="stop-opacity:1; stop-color:gray"/>
   <stop offset="0.145098" style="stop-opacity:1; stop-color:#8C8C8C"/>
   <stop offset="0.490196" style="stop-opacity:1; stop-color:#999999"/>
   <stop offset="0.85098" style="stop-opacity:1; stop-color:#8D8D8D"/>
   <stop offset="1" style="stop-opacity:1; stop-color:gray"/>
  </linearGradient>
 </defs>
 <g id="Layer_x0020_1">
  <metadata id="CorelCorpID_0Corel-Layer"/>
  <path class="fil0" d="M540.75 0l20.13 0c2.49,0 4.51,2.02 4.51,4.51l0 196.15c0,2.49 -2.02,4.51 -4.51,4.51l-20.13 0c-2.49,0 -4.5,-2.02 -4.5,-4.51l0 -196.15c0,-2.49 2.02,-4.51 4.5,-4.51zm67.86 24.67l0 -20.13c0,-2.49 2.02,-4.51 4.51,-4.51l85.11 0c0.18,-0.02 0.36,-0.03 0.54,-0.03 0.48,0 -0.07,0.01 1.05,0.03l0.76 0.01 0.3 -0.01 0 0.01 0.56 0.02c8.84,0.33 17.41,2.32 25.33,5.78 7.95,3.47 15.24,8.41 21.47,14.65 6.56,6.56 11.68,14.28 15.17,22.71 3.48,8.41 5.32,17.48 5.32,26.76 0,9.28 -1.84,18.35 -5.32,26.76 -3.49,8.43 -8.61,16.15 -15.17,22.71 -6.23,6.23 -13.52,11.17 -21.47,14.65 -7.91,3.46 -16.47,5.44 -25.3,5.78 -0.18,0.02 -0.36,0.03 -0.54,0.03l-0.03 0 0 -0.01 -1.05 0.02c-1.12,0.02 -0.65,0.03 -1.08,0.03l0 -0.02c-0.13,0 -0.25,-0.01 -0.38,-0.02l-56.4 0 0 60.76c0,2.49 -2.02,4.51 -4.51,4.51l-20.13 0c-2.49,0 -4.51,-2.02 -4.51,-4.51l0 -85.4c0,-2.49 2.02,-4.5 4.51,-4.5l79.6 0 0 0.01c0.17,0 0.33,0.01 0.5,0.03l1.32 0c5.46,0 10.76,-1.07 15.64,-3.09 4.87,-2.02 9.36,-5.01 13.22,-8.87 3.86,-3.86 6.85,-8.35 8.87,-13.22 2.02,-4.88 3.09,-10.19 3.09,-15.64 0,-5.46 -1.07,-10.76 -3.09,-15.64 -2.02,-4.87 -5.01,-9.36 -8.87,-13.22 -3.86,-3.86 -8.35,-6.85 -13.22,-8.87 -4.88,-2.02 -10.19,-3.09 -15.64,-3.09l-1.29 0c-0.18,0.02 -0.36,0.03 -0.54,0.03l-83.82 0c-2.49,0 -4.51,-2.02 -4.51,-4.51zm340.69 130.55l14 14.39c1.73,1.78 1.69,4.62 -0.09,6.35 -4.76,4.65 -9.95,8.82 -15.46,12.44 -5.51,3.62 -11.38,6.71 -17.52,9.21 -6.13,2.49 -12.47,4.38 -18.93,5.64 -6.49,1.27 -13.09,1.91 -19.71,1.91 -13.62,0 -26.92,-2.69 -39.25,-7.8 -12.34,-5.11 -23.66,-12.62 -33.29,-22.25 -9.63,-9.63 -17.14,-20.95 -22.25,-33.29 -5.11,-12.33 -7.8,-25.63 -7.8,-39.25 0,-13.62 2.69,-26.92 7.8,-39.25 5.11,-12.34 12.62,-23.66 22.25,-33.29 9.63,-9.63 20.95,-17.14 33.29,-22.25 12.33,-5.11 25.63,-7.8 39.25,-7.8 6.62,0 13.22,0.64 19.72,1.91 6.46,1.26 12.8,3.14 18.92,5.64 6.14,2.5 12,5.59 17.51,9.21 5.52,3.62 10.7,7.79 15.46,12.44 1.78,1.73 1.82,4.57 0.09,6.35l-14 14.39c-1.73,1.78 -4.57,1.82 -6.35,0.09 -3.39,-3.31 -7.1,-6.29 -11.09,-8.9 -3.96,-2.6 -8.17,-4.81 -12.56,-6.6 -4.4,-1.79 -8.93,-3.13 -13.53,-4.03 -4.64,-0.9 -9.38,-1.35 -14.18,-1.35 -9.8,0 -19.33,1.92 -28.13,5.56 -8.78,3.64 -16.87,9.02 -23.8,15.94 -6.93,6.93 -12.31,15.02 -15.94,23.8 -3.64,8.8 -5.56,18.33 -5.56,28.13 0,9.8 1.92,19.33 5.56,28.13 3.64,8.78 9.02,16.87 15.94,23.8 6.93,6.93 15.02,12.31 23.8,15.94 8.8,3.64 18.33,5.56 28.13,5.56 4.79,0 9.54,-0.45 14.18,-1.35 4.6,-0.9 9.13,-2.24 13.53,-4.03 4.39,-1.79 8.6,-4 12.56,-6.6 3.98,-2.61 7.7,-5.59 11.08,-8.9 1.78,-1.73 4.62,-1.69 6.35,0.09zm-458.54 -119.67l-13.78 14.16c-0.08,0.1 -0.17,0.19 -0.26,0.28 -1.76,1.76 -4.61,1.76 -6.37,0l0.01 -0.01c-3.38,-3.29 -7.08,-6.26 -11.04,-8.86 -3.96,-2.6 -8.17,-4.81 -12.56,-6.6 -4.4,-1.79 -8.93,-3.13 -13.53,-4.03 -4.63,-0.9 -9.38,-1.35 -14.18,-1.35 -9.8,0 -19.33,1.92 -28.13,5.56 -8.78,3.64 -16.87,9.02 -23.8,15.94 -6.93,6.93 -12.31,15.02 -15.95,23.8 -3.64,8.8 -5.56,18.33 -5.56,28.13 0,9.8 1.92,19.33 5.56,28.13 3.64,8.78 9.02,16.87 15.95,23.8 6.93,6.93 15.02,12.31 23.8,15.94 8.8,3.64 18.33,5.56 28.13,5.56 4.63,0 9.19,-0.41 13.62,-1.23 4.42,-0.82 8.77,-2.05 12.98,-3.68 3.29,-1.28 6.46,-2.78 9.48,-4.48 3.01,-1.7 5.93,-3.64 8.74,-5.79l0 -52.86c0,-2.49 2.02,-4.51 4.5,-4.51l20.13 0c2.49,0 4.5,2.02 4.5,4.51l0 63.93 -0.02 0c-0,1.21 -0.49,2.42 -1.46,3.31l-3.3 3.02c-4.73,4.32 -9.8,8.18 -15.15,11.5 -5.34,3.32 -11.02,6.16 -16.95,8.47 -5.92,2.3 -12.02,4.04 -18.22,5.2 -6.24,1.17 -12.56,1.76 -18.86,1.76 -13.62,0 -26.92,-2.69 -39.25,-7.8 -12.34,-5.11 -23.66,-12.62 -33.29,-22.25 -9.63,-9.63 -17.14,-20.95 -22.25,-33.29 -5.11,-12.32 -7.8,-25.63 -7.8,-39.25 0,-13.62 2.69,-26.92 7.8,-39.25 5.11,-12.34 12.62,-23.66 22.25,-33.29 9.63,-9.63 20.95,-17.14 33.29,-22.25 12.33,-5.11 25.63,-7.8 39.25,-7.8 6.62,0 13.22,0.64 19.71,1.91 6.46,1.26 12.8,3.15 18.92,5.64 6.14,2.5 12,5.59 17.51,9.21 5.52,3.62 10.7,7.79 15.47,12.44 1.78,1.73 1.82,4.57 0.09,6.35z"/>
  <path class="fil1" d="M102.22 21.86l112.95 0 0 175.79c0,4.13 3.38,7.51 7.51,7.51l43.27 0c4.13,0 7.51,-3.38 7.51,-7.51l0 -190.14c0,-4.13 -3.38,-7.51 -7.51,-7.51 -54.58,0 -109.15,0 -163.73,0 -4.13,0 -7.51,3.38 -7.51,7.51l0 6.84c0,4.13 3.38,7.51 7.51,7.51z"/>
  <path class="fil2" d="M171.24 183.3l-112.95 0 0 -175.79c0,-4.13 -3.38,-7.51 -7.51,-7.51l-43.27 0c-4.13,0 -7.51,3.38 -7.51,7.51l0 190.14c0,4.13 3.38,7.51 7.51,7.51 54.58,0 109.15,0 163.73,0 4.13,0 7.51,-3.38 7.51,-7.51l0 -6.84c0,-4.13 -3.38,-7.51 -7.51,-7.51z"/>
 </g>
</svg>
