<?xml version="1.0" encoding="UTF-8"?>
<!DOCTYPE svg PUBLIC "-//W3C//DTD SVG 1.1//EN" "http://www.w3.org/Graphics/SVG/1.1/DTD/svg11.dtd">
<!-- Creator: CorelDRAW -->
<svg xmlns="http://www.w3.org/2000/svg" xml:space="preserve" width="3.937in" height="3.93701in" version="1.1" style="shape-rendering:geometricPrecision; text-rendering:geometricPrecision; image-rendering:optimizeQuality; fill-rule:evenodd; clip-rule:evenodd"
viewBox="0 0 91.68 91.68"
 xmlns:xlink="http://www.w3.org/1999/xlink"
 xmlns:xodm="http://www.corel.com/coreldraw/odm/2003">
 <defs>
  <style type="text/css">
   <![CDATA[
    .fil0 {fill:#004BA6}
   ]]>
  </style>
 </defs>
 <g id="Layer_x0020_1">
  <metadata id="CorelCorpID_0Corel-Layer"/>
  <path class="fil0" d="M31.22 22.46l7.93 7.93c0.97,0.97 0.97,2.55 0,3.52l-4.71 4.71c-3.3,3.3 1.91,8.72 5.89,12.72 4,3.98 9.42,9.19 12.72,5.89l4.71 -4.71c0.97,-0.97 2.55,-0.97 3.52,0l7.93 7.93c0.97,0.97 0.97,2.55 0,3.52l-2.33 2.33c-6.99,6.99 -19.33,3.29 -32,-9.51 -12.8,-12.68 -16.5,-25.01 -9.51,-32l2.33 -2.33c0.97,-0.97 2.55,-0.97 3.52,0zm-17.79 55.78c-17.9,-17.9 -17.9,-46.92 0,-64.82 17.9,-17.9 46.92,-17.9 64.82,0 17.9,17.9 17.9,46.92 0,64.82 -17.9,17.9 -46.92,17.9 -64.82,0z"/>
 </g>
</svg>
