<?xml version="1.0" encoding="UTF-8"?>
<!DOCTYPE svg PUBLIC "-//W3C//DTD SVG 1.1//EN" "http://www.w3.org/Graphics/SVG/1.1/DTD/svg11.dtd">
<!-- Creator: CorelDRAW -->
<svg xmlns="http://www.w3.org/2000/svg" xml:space="preserve" width="3.93701in" height="3.93701in" version="1.1" style="shape-rendering:geometricPrecision; text-rendering:geometricPrecision; image-rendering:optimizeQuality; fill-rule:evenodd; clip-rule:evenodd"
viewBox="0 0 107.26 107.26"
 xmlns:xlink="http://www.w3.org/1999/xlink"
 xmlns:xodm="http://www.corel.com/coreldraw/odm/2003">
 <defs>
  <style type="text/css">
   <![CDATA[
    .fil0 {fill:#004BA6}
   ]]>
  </style>
 </defs>
 <g id="Layer_x0020_1">
  <metadata id="CorelCorpID_0Corel-Layer"/>
  <path class="fil0" d="M53.63 107.26c-29.62,0 -53.63,-24.01 -53.63,-53.63 0,-29.62 24.01,-53.63 53.63,-53.63 29.62,0 53.63,24.01 53.63,53.63 0,29.62 -24.01,53.63 -53.63,53.63zm0 -25.01c-7.9,0 -15.06,-3.2 -20.24,-8.38 -5.18,-5.18 -8.38,-12.33 -8.38,-20.24 0,-7.9 3.2,-15.06 8.38,-20.24 5.18,-5.18 12.33,-8.38 20.24,-8.38 7.9,0 15.06,3.2 20.24,8.38 5.18,5.18 8.38,12.33 8.38,20.24 0,7.9 -3.2,15.06 -8.38,20.24 -5.18,5.18 -12.33,8.38 -20.24,8.38zm-16.84 -11.78c2.38,2.38 5.27,4.26 8.48,5.47 -0.49,-0.88 -0.94,-1.84 -1.36,-2.87 -1.02,-2.52 -1.84,-5.51 -2.41,-8.82l-9.2 0c1.15,2.32 2.67,4.42 4.48,6.23zm-6.97 -16.84c0,2 0.25,3.94 0.71,5.8l10.36 0c-0.17,-1.87 -0.25,-3.81 -0.25,-5.8 0,-1.94 0.08,-3.83 0.24,-5.65l-10.39 0c-0.44,1.81 -0.68,3.71 -0.68,5.65zm6.97 -16.84c-1.85,1.85 -3.39,4 -4.56,6.37l9.25 0c0.57,-3.37 1.4,-6.41 2.43,-8.96 0.42,-1.03 0.87,-1.99 1.36,-2.87 -3.22,1.2 -6.1,3.08 -8.48,5.47zm33.67 0c-2.38,-2.38 -5.27,-4.26 -8.48,-5.47 0.49,0.88 0.94,1.84 1.36,2.87 1.03,2.56 1.86,5.6 2.43,8.96l9.25 0c-1.16,-2.37 -2.71,-4.52 -4.56,-6.37zm6.97 16.84c0,-1.95 -0.23,-3.84 -0.68,-5.65l-10.39 0c0.16,1.83 0.24,3.72 0.24,5.65 0,1.99 -0.09,3.93 -0.25,5.8l10.36 0c0.46,-1.86 0.71,-3.8 0.71,-5.8zm-6.97 16.84c1.81,-1.81 3.33,-3.91 4.48,-6.23l-9.2 0c-0.57,3.31 -1.39,6.3 -2.41,8.82 -0.42,1.03 -0.87,1.99 -1.36,2.87 3.22,-1.2 6.1,-3.08 8.48,-5.47zm-22.09 0.81c1.54,3.81 3.41,6.17 5.26,6.17 1.85,0 3.72,-2.36 5.26,-6.17 0.81,-2.02 1.49,-4.39 1.98,-7.03l-14.48 0c0.49,2.64 1.17,5.02 1.98,7.03zm-2.92 -17.64c0,2 0.09,3.94 0.27,5.8l15.82 0c0.18,-1.86 0.27,-3.8 0.27,-5.8 0,-1.95 -0.09,-3.84 -0.25,-5.65l-15.85 0c-0.17,1.81 -0.25,3.71 -0.25,5.65zm2.92 -17.64c-0.83,2.05 -1.51,4.48 -2.01,7.18l14.54 0c-0.5,-2.7 -1.18,-5.12 -2.01,-7.18 -1.54,-3.81 -3.41,-6.17 -5.26,-6.17 -1.85,0 -3.72,2.36 -5.26,6.17z"/>
 </g>
</svg>
